<?xml version="1.0" encoding="UTF-8"?>
<!DOCTYPE svg PUBLIC "-//W3C//DTD SVG 1.1//EN" "http://www.w3.org/Graphics/SVG/1.1/DTD/svg11.dtd">
<!-- Creator: CorelDRAW 2020 (64-Bit) -->
<svg xmlns="http://www.w3.org/2000/svg" xml:space="preserve" width="250px" height="350px" version="1.1" style="shape-rendering:geometricPrecision; text-rendering:geometricPrecision; image-rendering:optimizeQuality; fill-rule:evenodd; clip-rule:evenodd"
viewBox="0 0 250 350"
 xmlns:xlink="http://www.w3.org/1999/xlink"
 xmlns:xodm="http://www.corel.com/coreldraw/odm/2003">
 <defs>
  <style type="text/css">
   <![CDATA[
    .fil65 {fill:#11562E}
    .fil72 {fill:#17542B}
    .fil44 {fill:#1B4A26}
    .fil58 {fill:#264928}
    .fil34 {fill:#28552A}
    .fil90 {fill:#2A1907}
    .fil74 {fill:#2D2C2B}
    .fil32 {fill:#31251C}
    .fil5 {fill:#332414}
    .fil4 {fill:#33322D}
    .fil3 {fill:#342B24}
    .fil21 {fill:#352A1D}
    .fil19 {fill:#362E31}
    .fil67 {fill:#374927}
    .fil77 {fill:#395529}
    .fil43 {fill:#395735}
    .fil47 {fill:#3A2815}
    .fil46 {fill:#3B2B1C}
    .fil36 {fill:#3B2D23}
    .fil15 {fill:#3B3433}
    .fil42 {fill:#3C342C}
    .fil33 {fill:#3C3B34}
    .fil30 {fill:#42342B}
    .fil63 {fill:#443B2D}
    .fil88 {fill:#444444}
    .fil75 {fill:#485636}
    .fil53 {fill:#493825}
    .fil93 {fill:#49443A}
    .fil49 {fill:#4A3C34}
    .fil28 {fill:#506338}
    .fil85 {fill:#534C4B}
    .fil57 {fill:#545454}
    .fil83 {fill:#564838}
    .fil86 {fill:#572928}
    .fil69 {fill:#585539}
    .fil14 {fill:#5A565B}
    .fil7 {fill:#5B2C2C}
    .fil1 {fill:#5B5554}
    .fil50 {fill:#5B5956}
    .fil16 {fill:#5B5B5B}
    .fil79 {fill:#5C3234}
    .fil60 {fill:#622B34}
    .fil51 {fill:#62382C}
    .fil66 {fill:#625C5B}
    .fil23 {fill:#633234}
    .fil48 {fill:#63615D}
    .fil68 {fill:#645D61}
    .fil2 {fill:#652D36}
    .fil31 {fill:#65323B}
    .fil78 {fill:#655956}
    .fil38 {fill:#662E39}
    .fil61 {fill:#673743}
    .fil71 {fill:#674736}
    .fil25 {fill:#692E3A}
    .fil82 {fill:#694846}
    .fil64 {fill:#696549}
    .fil40 {fill:#6A323C}
    .fil27 {fill:#6A3441}
    .fil81 {fill:#6B6463}
    .fil89 {fill:#746967}
    .fil59 {fill:#756857}
    .fil99 {fill:#757456}
    .fil80 {fill:#7A7667}
    .fil94 {fill:#8A6F52}
    .fil98 {fill:#8D886D}
    .fil96 {fill:#959587}
    .fil70 {fill:#A7A598}
    .fil84 {fill:#AC4F3A}
    .fil97 {fill:#AC9370}
    .fil62 {fill:#B65746}
    .fil41 {fill:#BB5B45}
    .fil10 {fill:#BC624C}
    .fil12 {fill:#C3644C}
    .fil26 {fill:#C46453}
    .fil37 {fill:#C56749}
    .fil6 {fill:#C56A54}
    .fil13 {fill:#CB915A}
    .fil18 {fill:#CC6C5B}
    .fil35 {fill:#CC7254}
    .fil56 {fill:#CC725A}
    .fil54 {fill:#D16D59}
    .fil91 {fill:#D16E62}
    .fil55 {fill:#D37462}
    .fil87 {fill:#D37553}
    .fil8 {fill:#D37A4B}
    .fil22 {fill:#D47A53}
    .fil39 {fill:#D57A4D}
    .fil45 {fill:#D69768}
    .fil29 {fill:#D78765}
    .fil73 {fill:#D87A66}
    .fil24 {fill:#D8A877}
    .fil20 {fill:#D97E51}
    .fil76 {fill:#DA7C54}
    .fil11 {fill:#DC8254}
    .fil52 {fill:#DD835A}
    .fil92 {fill:#E4A878}
    .fil95 {fill:#E7C89A}
    .fil17 {fill:#EBEAE6}
    .fil9 {fill:#F5F5F3}
    .fil0 {fill:#FEFFFE}
   ]]>
  </style>
   <clipPath id="id0">
    <rect x="1" width="216" height="323"/>
   </clipPath>
 </defs>
 <g id="Слой_x0020_1">
  <metadata id="CorelCorpID_0Corel-Layer"/>
  <g style="clip-path:url(#id0)">
   <image id="Без_x0020_имени-1.jpg" x="1" y="0" width="216" height="323" xlink:href="Безымянный-2_Images\Безымянный-2_ImgID1.png"/>
  </g>
  <g id="_1182894448">
   <path class="fil0" d="M107.49 155.41c-1.89,3.61 -6.06,8.4 -9.9,9.57 -4.15,3.88 -10.91,-3.09 -15.56,-4.41l-21.11 20.36c-2.75,2.64 -4.61,4.24 -6.9,7.98 -2.37,3.89 -4.92,4.96 -7.96,7.8 -4.41,4.14 -9.8,14.28 -14.85,17.19l-1.55 2.1 -1.14 3.01 8.23 2.48 1.07 -2.15 6.11 -0.42c2.66,-2.24 2.13,-2.16 5.43,-2.46 1.54,-2.83 10.21,-1.52 13.46,-1.19l2.17 2.21c0.89,-3.22 -0.58,-1.26 2.35,-2.4 4.17,-0.09 8.73,-0.7 12.56,0.76l0.64 0.76 0.89 0.99 0.71 -2.39 11.21 -0.69 1.82 0.18 4.68 0.32 4.53 -0.02 2.23 0.63 -0.08 0.88 -0.44 -1.55 -0.41 -1.19 -69.82 0.28c1.99,-3.93 4.6,-5.81 8.52,-7.08l9.33 -11.77c4.34,-3.16 8.56,-7.1 12.38,-10.9 3.32,-3.3 8.32,-9.29 13.03,-8.99l-0.21 8.89 3.41 -1.06c2.54,-4.54 7.76,-13.7 12.47,-13.95 0.27,4.31 -2.85,8.91 -5.8,11.82 -1.22,2.74 -1.68,3.08 -3.22,5.57 -0.16,0.26 -1.33,2.57 -1.34,2.74 -0.17,4.04 -0.52,1.16 1.42,2.86l1.5 -2.6 1.93 -0.58c1.95,-4.39 5.11,-6.26 8.7,-9.43l2.13 -1.48c0.59,-2.89 -0.03,-1.82 2.6,-4.1 3.1,0.52 3.74,1.02 5.3,3.14 2.82,0.75 11.57,6.88 12.98,9.5 3.6,0.95 8.6,5.65 11.41,8.39l1.63 -0.73c-2.31,-8.59 -10.96,-11.89 -10.5,-18.93l2.59 0.75c3.37,0.71 3.55,0.29 5.86,2.24 4.2,0.11 13.68,9.54 15.38,13.29l4.58 3.5 0.04 -6.57c-2.69,-1.86 -4.86,-4.12 -5.29,-7.42 3.99,-0.03 10.4,4.82 12.35,8.43 3.94,1.67 12.98,9.63 15.53,12.98 3.01,-0.67 1.45,-0.53 1.55,0.53l5.4 4.7 1.1 3.13 0.66 0.38 0.26 -3.05 1.81 0.84 0.19 -2.97c-3.1,-2.96 -7.94,-6.45 -9.28,-10.22 -7.55,-4.21 -16.95,-19.94 -24.16,-22.34l-5.16 4.24 -0.94 0.74c-2.39,-2.3 -5.58,-4.69 -6.69,-7.62l-3.31 -3.51 -3.47 -3.57 -6.41 -1.75c-6.15,5.69 -9.86,-8.42 -18.63,-6.67z"/>
   <path class="fil0" d="M124.31 292.98l-1.96 0.09c-0.25,5.02 0.15,2.06 -1.33,3.94 -3.36,2.19 -1.62,1.03 -4.61,4.02l-3.99 -0.53 -2.24 4.22 -3.63 0.26c-2.14,1.7 -3.51,0.94 -6.78,0.93l-1.95 -1.99 -4.44 -0.15c-1.56,-2.29 -2.99,-3.3 -4.18,-5.77l-1.92 -2.04 -1.26 -3 -3.61 -0.04c-5.09,2.1 -6.73,0.5 -10.71,-1.9 0.35,-3.24 1.48,-5.16 1.77,-8.07 0.35,-3.42 -0.12,-5.98 0.43,-9.7l1.7 -0.84c2.75,-3.13 4.44,-0.63 8.73,-0.42 2.33,-1.83 2.27,-2.19 4.98,-2.43 1.64,-2.06 -1.11,-1.08 3.65,-1.64 0.17,-0.02 3.68,0 3.97,0.01 3.59,0.23 3.65,0.9 7.35,1.16 1.33,-1.86 2.98,-1.15 6.23,-1.13 2.31,0.02 4.61,-0.01 6.91,-0.02 5.64,5.04 5.1,1.35 8.85,4.86 1.81,-0.64 1.39,-0.4 2.84,-1.9 1.46,-0.74 4.66,-1.98 5.18,0.23l2.26 1.3 0.15 17.59c-4.07,2.36 -7.03,3 -12.39,2.96zm-55.44 4.9c5.96,6.6 15.97,8.53 24.37,11.92 16.87,6.8 7.02,7.82 24.05,-0.89 10.71,-5.48 20.06,-6.41 24.4,-10.94 3.32,-3.48 2.89,-28.11 1.54,-33.56 -4.2,-1.2 -69.01,-1.12 -74.58,0.01l0.22 33.46z"/>
   <path class="fil1" d="M126.11 243.46l-8.75 0.07c0.33,0.18 0.69,0.39 1.01,0.5l2.89 2.2c-2.99,1.66 0.38,0.03 -1.8,0.76 -0.52,0.17 -1.62,-0.07 -2.19,-0.09 0.32,1.68 0.25,0.96 2.23,3.3 -2.04,1.39 0.44,1.57 -3.27,0.48 4.3,6.17 6.46,2.32 11.87,0.48 5.74,1.29 5.36,3.27 11.16,1.24 8.15,-2.85 3.95,0.21 10.09,0.65 1.17,-2.62 1.51,-5.53 4.33,-6.82 3.28,-1.51 6.51,-0.73 8.82,1.83 -3.01,1.85 -13.88,-3.62 -9.37,7.08 0.29,-0.05 0.67,-0.11 0.85,-0.2 3.88,-1.98 1.38,-2.22 4.3,-3.12 2.69,5.28 -3.89,5.78 -7.85,5.27 -5.61,-0.71 -3.54,-3.9 -10.04,-2.73 -6.4,1.14 -7.89,-0.19 -12.26,0.1 -2.14,0.15 -2.25,1 -5.86,1.04 -2.39,0.03 -4.43,-0.57 -6.9,-0.5 -5.46,0.16 -6.75,1.93 -13.23,0.46 -7.43,-1.68 -5.66,1.33 -12.05,0.99 -2.95,-0.17 -3.79,-1.41 -5.94,-1.56 -3.12,-0.21 -3.16,1.02 -5.76,1.28 -2.18,0.21 -3.96,-0.6 -6.03,-0.84 -6.04,-0.71 -4.32,2.31 -5.83,-2.33l-1.63 1.28 1.23 1.69 -3.79 1.83c4.89,0.18 1.06,-0.51 4.32,0.89 -1.11,6.33 0.25,4.58 -5.87,1.79l1.4 -2.76 -6.12 0.3c-1.11,-3.93 -1.23,-2.35 0.36,-5.45l1.51 2.7c1.45,1.4 0.3,0.48 2.23,0.81 2.19,-3.45 1.58,-2.75 0.95,-6.3 -6.52,-2.48 -4.99,-0.62 -10.32,1.1 -0.79,4.1 -1.76,4.94 0.23,9.11 1.48,3.09 2.96,5.96 6.97,6.98l6.76 0.32c2.43,-3.98 0.18,-4.96 5.13,-5.77 1.86,-0.3 8.16,-0.36 10.49,-0.41 18.83,-0.46 48.35,0.41 66.17,-0.65l3.55 0.77c-2.86,4.49 -1.66,-1.88 -2.38,5.33 5.92,-0.5 9.01,-0.14 13.7,-2.84 3.74,-6.26 3.89,-6.56 0.82,-13.79 5.16,1 0.11,1.47 5.25,3.34 1.85,-4.24 2.07,-0.58 4.49,-4.49 -6.81,-0.85 -4.2,-0.91 -5.33,-2.06l3.6 -1.26c-7.79,-1.16 -5.92,-2 -11.23,-3.55 -3.32,-0.97 -6.44,0.83 -11.58,0.2 -7.48,-0.9 -6.04,2.12 -11.22,1.48 -2.13,-0.26 -8.38,-3.14 -9.27,0.1l5.1 0.67 -2.94 3.97 4.65 0.78 -10.85 3.03c-0.36,-5.25 -2.34,-2.88 2.84,-4.28l0.36 -4.4z"/>
   <path class="fil2" d="M132.4 195.01c-0.58,2.9 2.75,-0.43 -1.42,3.13 -2.18,-1.1 -2.76,-2.14 -5.04,-2.06l3.68 0.37 1.36 4.73c-4.88,3.27 -3.94,0.87 -7.09,2.7 -4.1,2.38 -4.08,2.14 -6.47,-1.17 -2.57,0.64 -5.38,1.41 -7.8,-0.49l-4.63 -4.87c5.97,-1.19 7.81,0.7 12.4,4.08 1.72,-1.85 5.32,-4.5 8.22,-4.72l-0.84 -1.88c-5.35,1.14 -3,-0.31 -7.41,-2.84 -2.14,-0.64 -2.8,-0.05 -5.92,0.23 -2.6,-3.81 -2.74,-3.8 -8.65,-2.13l3.02 1.94 -2.28 3.46c-3.26,1.66 -3.1,0.96 -5.42,0.03 0.48,-3.8 0.99,-0.22 1.95,-5.65 -4.24,-0.65 -0.91,-0.14 -4.3,2.83l-4.14 -3.28 3.2 6.14 -2.76 0.35 4.14 1.92c-0.19,1.17 0.52,5.3 -3.67,2.73l-0.05 6.85 6.97 0.09 -1.55 2.91c7.99,-3.2 5.67,-0.48 13.15,-0.86 0.5,-2.81 -0.24,-1.17 1.66,-2.59 -2.01,-2.61 -1.17,-1.74 -4.67,-2.77l7.06 0.71c-0.56,3.56 0.27,1.83 -2.59,4.38l6.35 0.88 0.88 -2.99c3.28,0.55 4.54,1.9 6.63,1.94 4.13,0.09 0.06,-1.41 6.64,-0.95l1.66 -3.73c2.53,2.21 3.09,2.1 6.51,1.09 0.1,1.8 0.73,0.29 -1.46,2.14 2.64,0.54 3.51,0.2 5.63,0.86 9.17,2.85 1.84,1.46 15.79,1.48 18.14,0.02 10.75,-0.67 20.38,-2.22l-5.4 -4.7c0.47,2.67 1.29,0.84 -0.05,3.04 -4.1,-0.53 -2.54,0.72 -3.9,-3.14l2.4 -0.43c-2.55,-3.35 -11.59,-11.31 -15.53,-12.98 -3.21,-0.45 -3.61,-1.15 -6.79,-3.33l-0.27 2.32 -0.04 6.57 -4.58 -3.5 -2.18 -0.29c1.7,9.88 -1.71,-2.22 0.29,4.19l0.61 2.12c-1.86,0.42 -3.71,1.11 -5.54,1.51 -7.69,1.68 -5.19,0.45 -5.64,-0.48 -0.21,-0.45 -0.59,-0.44 -0.87,-0.68 3,-3.04 4.4,-2.5 8.78,-3.2 -1.68,-2.45 -1.69,-1.77 -5.44,-2.36 -0.55,-1.7 -2.08,-7.74 -4.35,-6.69l-1.03 0.9c-2.27,-3.15 -1.27,-1.13 -3.36,-3.35 -0.93,-0.98 -1.31,-1.8 -2.1,-3.06l-0.41 -4.14 -2.59 -0.75c-0.46,7.04 8.19,10.34 10.5,18.93l-1.63 0.73z"/>
   <path class="fil3" d="M95.12 288.16c3.48,0.87 4.91,3.01 4.66,6.69 -3.3,-0.78 -0.51,1.11 -3.22,-2.63 -2.05,-2.82 -1.5,-0.22 -1.44,-4.06zm-7.51 -5.18c-2.9,5.29 -3.58,1.15 -3.61,1.13 1.85,-2.16 -0.96,-0.51 1.47,-1.52 3.44,-1.41 1.11,0.07 2.14,0.39zm5.55 4.12c-2.53,-4.7 6.9,-7.4 8.12,-7.6 -0.2,2.33 3.26,2.16 -3.38,4.47 -3.95,1.38 -1.64,1.76 -4.74,3.13zm-3.85 -17.54c-2.71,0.24 -2.65,0.6 -4.98,2.43l-1.47 3.42 -2.48 9.87 -1.14 3.27 -2.74 -0.02 2.58 1.14 -1.46 1.15 5.85 0.9c-1.36,-0.9 -0.23,-1.27 -1.06,1.2l3.61 0.04 1.26 3 3.71 -1.36 0.33 3.63 -2.12 -0.23c1.19,2.47 2.62,3.48 4.18,5.77l4.44 0.15c1.18,-2.8 0.79,-1.89 0.78,-5.29l1.72 0c-1.12,-4.39 -0.44,-1.44 1.08,-2.23l3.95 2.1c1.71,3.97 1.31,2.06 2.59,3.23 1.71,-6.93 0.55,-2.96 -0.1,-8.91 2.62,-1.08 -0.19,-0.69 2.93,0.27 0.15,-0.17 0.38,-0.7 0.42,-0.54l1.3 -2.82 2.67 -0.4 -2.57 -4.67c2.31,-0.39 1.58,-0.27 3.41,0.29l-1.64 -2.28c-5.1,-0.73 -7.5,-1.83 -11.57,-4.51 5.79,-3.1 2.19,-1.07 6.25,0.57 8.77,3.56 1.92,-5.06 12.43,8.71 3.27,1.74 0.92,1.42 2.94,-0.39l-1.27 -2.4c-0.94,2.18 -0.75,0.62 0.92,2.25l1.81 -5.62c0.92,2.1 0.58,1.62 1.03,2.91 0.89,2.52 -0.26,0.26 1.31,3.03 3.84,-3.77 0.71,-0.15 1.49,-3.8l-3.43 -10.62c-3.75,-3.51 -3.21,0.18 -8.85,-4.86 -2.3,0.01 -4.6,0.04 -6.91,0.02 -3.25,-0.02 -4.9,-0.73 -6.23,1.13l-1.46 2.37c-2.7,-3.24 -0.42,-2.41 -4.99,-1.85 -3.43,6.84 1.17,1.67 -4.49,5.9 -6.35,4.74 -0.19,1.36 -7.18,3.62l-1.45 -2.81c4.15,-1.19 3.22,-1.34 5.77,0.29 -0.55,-2.05 -0.11,-1.88 -4.2,-3.81l4.56 -2.12c3.68,-1.36 1.33,0.68 3.34,-1.52l-4.87 0.4z"/>
   <path class="fil4" d="M166.27 235.33l-1.46 -0.33 -2.57 5.03c-4.86,0.21 -3.8,-1.34 -8.51,-0.75 -4.32,0.55 -3.35,0.32 -7.45,0.09 -5.8,-0.31 -7.49,3.33 -13.36,0.52 -6.22,-1.15 -4.47,-0.56 -9.51,1.24 -7.16,2.56 0.52,-3.79 -14.51,0.17 -5.71,1.5 -3.45,-0.78 -7.18,-1.53 -5.61,-1.15 -9.37,5.23 -14.21,0.85 -6.66,-1.36 -3.6,-0.47 -8.22,0.87 -4.26,1.24 -5.17,-0.58 -8.64,-1.94 -5.6,1.71 -3.25,2.74 -9.38,1.3 -4.52,-1.05 -4.61,0.24 -7.95,0.57 -9.28,-13.48 5.52,-6.86 8.52,-7.21 6.26,-0.73 3.5,-3.47 11.74,-0.3 6.11,0.74 6.86,-2.33 11.4,-1.48 8.92,1.65 3.31,1.47 12.26,-0.11 5.18,-0.92 4.92,2.31 11.39,1.19 5.5,-0.95 5.47,-3.63 10.62,0.74 3.75,-0.74 7.84,-2.9 10.71,-2.51 3.03,0.41 2.41,1.3 5.86,1.39 1.27,0.04 4.18,-0.3 5.62,-0.4 4.27,-0.31 8.05,0.84 10.86,0.55 5.56,-0.57 4.83,-2.74 12.09,-0.89l3.81 -0.49 -1.93 3.43zm-137.84 -7.9l-0.05 4.57c8.31,5.17 10.76,-1.82 16.65,1.35 -2.12,3.69 0.35,0.39 -4.16,2.9 -2.23,1.24 -1.32,1.15 -3.68,2.5l-0.61 2.94 -2.9 0.36c1.47,1.62 -3.01,2.04 3.53,1.11 -0.87,2.68 -0.86,1.19 -0.04,3.55 1.67,4.8 0.11,3.24 3.25,5.28 -1.41,-3.72 -2.62,-5.67 -1.44,-9.57 1.21,-3.97 2.12,-3.87 5.37,-5.92 3,-0.28 2.79,-0.26 4.8,1.69 1.09,3.67 1.67,1.55 -0.53,4.97 -3.48,0.71 -0.82,0.29 -1.84,-0.68l-2.52 -1.47 -1.22 1.19 0 3.55c5.76,2.04 7.9,-1.13 13.51,-2.25 4.62,-0.92 2.39,0.04 6.36,0.32 6.23,0.43 2.08,-1.74 7.58,-1.01 2.2,0.3 3.54,1.48 6.98,1.34 3.19,-0.12 5.33,-1.82 6.92,-1.95 4.42,-0.35 0.68,2.92 14.64,0.68 4.64,-1.63 3.26,1.46 8.37,1.08 4.26,-0.31 5.13,-2.74 9.96,-0.43l8.75 -0.07 0.84 0.23c0.89,-3.24 7.14,-0.36 9.27,-0.1 5.18,0.64 3.74,-2.38 11.22,-1.48 5.14,0.63 8.26,-1.17 11.58,-0.2 5.31,1.55 3.44,2.39 11.23,3.55l1.6 -4.92c-2.69,-0.33 -3.04,0.99 -6.33,0.76 -0.97,-3.33 -0.6,-2.59 0.75,-5.97 5.32,-0.27 4.81,0.2 8.94,2.64l1.29 -0.49c-1.15,-2.02 -0.28,-1.67 -3.11,-3.02 -4.47,-2.13 -1.31,1.66 -3.97,-2.55 4.59,-2.32 9.87,1.52 16.44,-0.56 1.09,-3.37 1.32,-2.38 -0.73,-5.56l-1.24 1.8c1.81,0.78 1.41,-0.74 0.78,2.49 -3.85,2.2 -3.33,1.65 -7.07,-0.05l0.3 -4.69c-2.36,0.39 -1.52,-0.61 -1.84,1.25 -3.01,1.2 -5.2,2.53 -8.53,3.18 -4.93,0.96 -4.47,-1.74 -9.24,-1.12 -4.41,0.57 -3.52,3.83 -8.86,0.37 -3.95,-2.55 -3,-2.49 -7.94,-0.54 -1.12,5.11 -8.56,-0.59 -13.43,0.15 -3.9,0.59 -2.75,1.97 -6.71,1.55 -2.44,-0.26 -3.57,-1.76 -6.91,-1.69 -6.47,0.12 -4.45,5.53 -13.04,0.84 -5.91,-3.22 -4.91,1.75 -11.22,1.4 -3.3,-0.19 -3.39,-1.4 -7.87,-0.97 -2.83,0.28 -4.28,1.43 -6.18,1.73 -4.45,0.68 -3.02,-2.87 -12.76,-1.01 -4.48,0.85 -3.86,-0.17 -7.4,-0.58 -4.32,-0.5 -10.13,3.63 -18.81,-2.65 -0.16,4.78 0.79,2.12 -0.59,5.6 -0.18,-0.29 -0.35,-0.65 -0.44,-0.94l-1.26 -5.91c-0.78,3.76 2.71,0.78 -1.46,3.62 -2.29,-2.29 0.33,1.71 -2.61,-3.31l-2.37 1.12z"/>
   <path class="fil5" d="M68.87 297.88l-0.22 -33.46c5.57,-1.13 70.38,-1.21 74.58,-0.01 1.35,5.45 1.78,30.08 -1.54,33.56 -4.34,4.53 -13.69,5.46 -24.4,10.94 -17.03,8.71 -7.18,7.69 -24.05,0.89 -8.4,-3.39 -18.41,-5.32 -24.37,-11.92zm-10.87 -30.91l-0.87 2.24 -1.87 -0.12 9.01 1.44c1.9,6.81 -0.12,20.92 0.89,29.41 2.32,2.27 5.36,4.59 7.86,6.62 3.39,2.74 20.8,5.83 29.8,14.43l3.68 0c2.46,-4.08 25.18,-14.96 30.2,-16.16 15.72,-3.75 7.95,-23.11 11.21,-35.42 6.31,-1.73 11.75,2.17 14.74,-4.34l-1.23 -1.35c-4.69,2.7 -7.78,2.34 -13.7,2.84l-1.23 -1.55 0.06 -4.55c-17.82,1.06 -47.34,0.19 -66.17,0.65 -2.33,0.05 -8.63,0.11 -10.49,0.41 -4.95,0.81 -2.7,1.79 -5.13,5.77l-6.76 -0.32z"/>
   <path class="fil6" d="M88.11 61.12c-0.16,-2.65 0.2,-4.63 1.11,-7.28 1.13,-3.3 -0.18,-2.84 3.41,-2.25 -0.6,2.98 -0.77,1.78 -3.53,4.5l4.68 3.15 -5.67 1.88zm1.15 -13.28c-1.44,5.39 -1.99,4.72 -6.52,6.64 -5.49,2.32 -1.47,3.5 -5.9,6.22 -3.86,0.45 -2.75,1.69 -4.66,4.67l-2.54 6.62 -1.91 1.05c-0.86,6.16 2.29,1.96 -0.39,7.72 -2.67,5.73 -2.23,2.89 -0.92,9.75 1.72,-1.39 0.52,1.26 1.26,-1.65 0.26,-1.02 0.11,-2.41 0.08,-3.48 1.6,5.07 1.84,0.97 3.99,5.61 5.58,-0.24 1.31,0.86 4.9,-1.57 -2.19,-4.73 -2.35,-2.07 -4.56,-4.07 -0.06,-0.05 -2.98,-4.07 -3.47,-4.62 3.61,-3.8 0.13,-0.69 3.6,-1.4 -1.53,-2.26 -1.17,0.34 -1.54,-3.64 -0.49,-5.14 0.23,-3.23 0.74,-4.61 2.23,2.23 1.22,-4.73 1.82,4.66l4.34 0.88c2.89,-3.76 2.29,-7.18 6.69,-4.46l4.51 -7.05c5.05,0.4 0.65,-0.4 2.81,2.02 5.61,-3.89 3.29,-0.88 7.87,-6.99l1.59 2.07 2.52 -0.58c5.2,-2.59 4.66,0.51 8.92,0.25l1.16 -2.84c-6.07,-1.72 -2.38,-0.04 -5.44,-4.39 -2.87,3 -1.04,2.22 -3.71,5.22l-1.18 -5.97c4.45,-3.77 1.15,-1.04 4.66,-6.17l4.71 1.24c-5.25,3.09 -2.95,-1.19 -4.82,3.42 4.23,2.49 4.52,0.5 9.29,-0.53l-0.22 5.13c-2.48,-0.03 0.98,-2.77 -2.82,0.71 1.88,1.1 3.57,1.7 4.63,3.43 4.73,-1.72 0.59,-1.07 5.46,-2.89 4.52,2.87 3.75,5.57 9.6,0.92 -0.3,-0.27 -0.59,-0.59 -0.91,-0.78 -6.58,-3.94 -9.52,0.31 -11.01,0.72 -5.4,1.49 -2.84,-0.21 -4.06,-0.98 3.78,-3.25 3.09,-2.28 7.72,-2.78 -0.08,-0.84 -0.18,-1.98 -0.26,-2.76 -0.02,-0.22 -0.02,-0.51 -0.05,-0.71 -0.26,-1.85 0.28,-1.83 -1.55,-3.03 -3.5,-2.51 -4.52,-1.39 -8.65,-0.48 -3.33,-4.41 -6.04,-2.6 -10.02,-1.05l-5.38 -2.18 -1.82 0.41c-2.02,2.61 -2.28,1.96 -0.63,5.45 3,-2.18 1.73,-3.66 5.8,-1.78l-2.92 1.18c-0.13,-0.24 -0.52,0.24 -0.79,0.36 0.05,4.02 0.61,2.8 -1.23,5.63 -2.17,-2.73 -0.94,-2.41 -4.08,-7.97l-4.71 -0.57z"/>
   <path class="fil7" d="M71.81 209.53l-1.02 1.36c-6.9,-1.33 1.78,-2.6 -13.78,0.24 -5.12,-4.46 -3.02,0.77 -13.76,-0.16l1.13 -4.01c-3.92,1.27 -6.53,3.15 -8.52,7.08l69.82 -0.28c7.64,0.19 47.59,0.71 52.02,-0.62 0.62,-2.61 8.41,-0.29 11.18,-0.25 4.62,0.05 9.04,-0.14 13.7,0.04l0.04 -2.02 -1.1 -3.13c-9.63,1.55 -2.24,2.24 -20.38,2.22 -13.95,-0.02 -6.62,1.37 -15.79,-1.48 -2.12,-0.66 -2.99,-0.32 -5.63,-0.86 2.19,-1.85 1.56,-0.34 1.46,-2.14 -3.42,1.01 -3.98,1.12 -6.51,-1.09l-1.66 3.73c-6.58,-0.46 -2.51,1.04 -6.64,0.95 -2.09,-0.04 -3.35,-1.39 -6.63,-1.94l-0.88 2.99 -6.35 -0.88c2.86,-2.55 2.03,-0.82 2.59,-4.38l-7.06 -0.71c3.5,1.03 2.66,0.16 4.67,2.77 -1.9,1.42 -1.16,-0.22 -1.66,2.59 -7.48,0.38 -5.16,-2.34 -13.15,0.86 -3.6,1.12 -5.16,-0.71 -11.02,0.29l0.91 -4.39 -7.76 -1.34c-1.81,-2.73 -1.13,0.05 -1.6,-3.69 -7.6,0.65 -3.98,3.71 -6.62,8.25z"/>
   <path class="fil8" d="M97.9 86.1l0.72 1.86c-2.88,0.76 -2.54,1.21 -5.63,0.98 -3.27,-4.39 1.18,-1.14 -5.89,-4.73 -1.1,-0.56 -0.41,-0.47 -1.67,-0.76 -0.94,5.6 0.25,1.02 -2.57,2.92 -0.4,0.67 -1.09,0.69 -1.97,1.25l1.15 4.41 0.03 1.89c1.09,3.66 5.28,9.59 6.1,12.08 6.36,3.21 6.71,5.34 15.01,5.36l0.22 1.36c3.45,-3.21 0.83,-0.04 2.78,-4.4 1.7,-3.8 -0.12,-2.81 4.64,-2.17l0.48 5.97 4.5 -0.01c1.14,-3.02 1.76,-3.7 5.42,-4.39 -4.07,-0.34 -2.59,-0.97 -6.78,-0.63l-2 -4.57c-4.65,-0.12 -1.59,0.71 -4.01,0.82 -3.55,0.15 -1.73,0.14 -3.39,-0.94 3.29,-2.08 6,-1.94 9.4,-1.62l-2.86 -3.31 -9.21 3.13c-0.06,-0.02 -0.64,2.52 -3.77,-2.47 -0.67,5.17 -1.89,1.49 1.7,5.02 -8.56,-2.39 -1.84,-1.22 -4.55,-5.41 -5.26,-1.48 0,-0.11 -4.87,1.32 -4.48,1.32 -1.64,0.22 -5.95,-0.52 0.29,-5.34 0.82,-2.9 1.96,-6.98 1.01,-3.62 0.84,-0.73 3.63,-6.91 5.75,9.26 -1.99,8.1 3.45,11.29 1.61,-1.88 1.06,-3.17 1.93,-5.28 2.55,3.75 0.46,1.27 1.58,4.33 4.72,-9.53 -1.82,-4.97 4.43,-7.37 3.82,3.13 2.08,2.65 2.63,7.2l2.25 0.75c-0.5,-0.8 -1.04,0.3 0.55,-4.49 1.57,1.4 2.68,1.49 3.13,2.23 1.12,1.83 -3.53,2.25 3.06,2.31 2.23,-3.22 0.26,-1.46 0.84,-4.72l1.52 3 3.2 -4.26 5.46 0.25 6 0.36 0.01 -6.78c-3.59,-0.45 -2.2,0.1 -6.59,-4.28 0.03,3.9 -0.86,0.59 1.94,3.48l-2.52 3.56c-6.93,1.12 -7.63,-2.31 -12.96,2.21 -0.83,-2.72 -0.7,-2.75 -0.56,-5.55 -5.48,0.84 -3.72,0.93 -4.51,3.39l-0.56 1.37c-3.37,-2.39 -2.23,-1.6 -6.9,-1.55z"/>
   <path class="fil9" d="M75.1 223.94l5.44 -7.34 -0.64 -0.76 -2.73 0.46c-1.31,3.14 -0.43,2.03 -3.17,3.7 -2.69,7.49 -10.45,5.69 -17.67,5.45 0.55,-3.92 1.98,-2.17 4.42,-5.37 -7.05,-1.18 -4.37,3.69 -9.04,5.24 -2.85,0.95 -10.64,0.39 -14.13,0.58l-0.42 1.35c8.68,6.28 14.49,2.15 18.81,2.65 3.54,0.41 2.92,1.43 7.4,0.58 9.74,-1.86 8.31,1.69 12.76,1.01 1.9,-0.3 3.35,-1.45 6.18,-1.73 4.48,-0.43 4.57,0.78 7.87,0.97 6.31,0.35 5.31,-4.62 11.22,-1.4 8.59,4.69 6.57,-0.72 13.04,-0.84 3.34,-0.07 4.47,1.43 6.91,1.69 3.96,0.42 2.81,-0.96 6.71,-1.55 4.87,-0.74 12.31,4.96 13.43,-0.15l-4.07 -1.46c-0.49,0.19 -0.22,2.83 -1.56,0.52 -0.14,-0.23 -0.52,0.17 -0.8,0.22l-1.2 -2.03 -9.64 -0.1 -2.85 -5.63 -0.89 0.48 -0.53 1.07 0.29 1.95 1.31 2.67c-6.03,0.44 -11.85,0.62 -17.81,-0.56l-12.84 -0.14 1.52 -1.65c-0.05,-3.18 -0.7,-1.27 1.24,-2.42l1.06 -2.41 0.45 -4.3 -1.82 -0.18 -5.22 11.29 -14.51 -0.2c0.13,-2.02 -0.53,-0.7 1.48,-1.66z"/>
   <path class="fil10" d="M86.72 111.82c-2.47,1.07 2.32,1.6 -3.19,0.67 -2.62,-0.44 -2.91,-3.27 -3.32,-5.46 3.79,0.63 5.04,1.38 6.51,4.79zm-7.31 -11.77l0.49 2.03c-5.3,2.35 -2.22,3.09 -5.41,0.14 -1.62,-1.49 -0.69,-1.08 -3.09,-1.83 -2.06,9.14 1.07,5.49 6.89,8.1l-0.49 1.28 -0.88 1.62c-2.18,-0.87 2.36,1.19 -1.46,-0.91l-1.51 -0.73c-0.13,-0.4 -0.57,-0.28 -0.87,-0.38 0.67,4.19 1.49,6.98 6.65,7.27 0.92,3.28 1.18,6.07 4.15,7.58l5.16 -1.89 -0.97 3.51c2.42,5.05 1.03,-0.48 4.96,4.56 10.46,-2.47 -0.74,1.15 14.99,1.41l0.52 -2.01c4.1,0.44 2.3,0.88 5.5,-0.45 -4.43,-1.14 -3,-1.51 -6.94,-3.04 -3.01,1.83 -2.65,2.11 -6.29,1.5 -1.19,-2.13 -1.34,-0.7 0.45,-1.71l1.05 -1.42c-5.58,2.02 -4.38,0.2 -5.13,-0.2 0.12,-0.35 0.21,-0.85 0.35,-1.07 0.9,-1.4 0.69,-1.55 2.35,-1.42 -5.12,-1.09 -1.52,-0.24 -5.28,-3.95l-5.91 0.52c-0.57,-6.09 1.23,-5.37 -0.52,-12.56 -0.82,-2.49 -5.01,-8.42 -6.1,-12.08l-2.53 0.96 1.91 4.55 -2.04 0.62z"/>
   <path class="fil11" d="M94.97 75.24c1.53,0.64 0.22,0.26 1.99,0.34l6.21 1.24c-1.88,2.19 0.82,0.09 -1.71,1.07l-2.68 0.87 -0.88 7.34c4.67,-0.05 3.53,-0.84 6.9,1.55l0.56 -1.37c0.79,-2.46 -0.97,-2.55 4.51,-3.39 -0.14,2.8 -0.27,2.83 0.56,5.55 5.33,-4.52 6.03,-1.09 12.96,-2.21l2.52 -3.56c-2.8,-2.89 -1.91,0.42 -1.94,-3.48 4.39,4.38 3,3.83 6.59,4.28l0.98 -3.57c-2.67,-1.44 -1.57,-2.13 -4.01,-3.73 -0.51,-0.34 -3.91,-1.71 -4.75,-2.06l1.73 -4.96 0.25 -1.11 -8.65 4.99 1.33 1.08c-1.98,2.23 -2.4,1.31 -2.46,3.21 -7.73,-6.92 -2.19,2.83 -8.22,-5.42l0.8 -4.49c-4.98,0.4 -3.19,2.25 -4.54,5.84 -4.35,1.23 -4.21,1.97 -7.42,-0.37 4.05,-1.42 2.46,1.09 5.27,-0.69 2.94,-1.86 1.36,-2.14 1.41,-4.71 -4.05,0.06 -4.51,1.32 -8.63,5.15 -0.09,0.09 -2.14,2.19 -2.55,2.56 3.07,1.45 0.17,1.01 3.87,0.05z"/>
   <path class="fil12" d="M134.14 84.99c2,-1.35 -0.67,-0.45 3.05,-1.71 4.84,-1.64 0.27,-0.36 3.64,-0.61 6.63,8.35 7.36,6.34 4.74,10.63 -4.05,-2.65 -1.56,-1.8 -3.73,-5.72l-7.7 -2.59zm10.47 -6.91c1.51,2.88 1.69,2.47 -0.95,3.85 -2.05,-2.88 -2.63,-2.43 0.95,-3.85zm-19.04 -8.93c3.12,4.15 4.67,2.16 6.52,9.54 1.05,4.21 -0.01,10.7 0.11,14.89 2.46,0.61 -0.73,-1.46 4.7,0.3l0.23 -5.32c5.09,1.51 -3.27,-4.74 2.73,1.48l4.23 6.97c1.61,5.91 0.33,3.84 -1.44,6.32l-2.32 -6.6c0.76,3.43 1.03,4.57 -0.83,7.38l-0.95 5.22c3.48,3.59 0.26,0.69 3.12,1.11 0.79,-2.62 0.69,-4.26 0.58,-6.8l3.47 -0.63c3.14,-9.29 -2.68,-1.79 3.39,-12.76 -2.17,-7.11 -3.77,-2.88 -0.67,-10.26l-1.99 -4.51 -2.11 -1c0.3,-7.35 1.6,-4.36 -3.64,-9.27 -1.42,-0.57 -2.95,-1.21 -4.26,-1.39l-4.58 0.83c3.77,4.59 5.15,2.81 10.01,2.91l0.47 4.36c-6.41,0.86 0.27,-2.28 -8.52,-1.76 -0.93,2.09 0.19,1.52 -1.82,4.34 -0.7,-3.38 -0.77,-2.79 -5.19,-7.92 -2.59,1.51 -1.41,-0.66 -1.24,2.57z"/>
   <path class="fil13" d="M62.05 77.99c-5.13,17.42 6.13,40.37 20.37,48.9 9.17,5.48 17.83,7.96 28.68,6.73 7.76,-0.88 20.38,-5.1 24.56,-12.2 -7.85,0.71 -10.32,9.64 -19.77,7.39l-1.85 0.54c-3.2,1.33 -1.4,0.89 -5.5,0.45l-0.52 2.01c-15.73,-0.26 -4.53,-3.88 -14.99,-1.41 -3.93,-5.04 -2.54,0.49 -4.96,-4.56l-4.79 -0.6 0.6 -1.02c-2.97,-1.51 -3.23,-4.3 -4.15,-7.58 -0.7,0.59 0.16,2.33 -4.07,1.44 -2.14,-0.45 -1.96,-1.38 -2.89,-3.14 -1.42,-2.68 -2.54,-4.68 -4.06,-6.92 -3.08,-4.53 -1.33,-4.94 -2.27,-8.76 -0.53,-2.18 -3.78,-4.54 -0.02,-8.75 -1.31,-6.86 -1.75,-4.02 0.92,-9.75 2.68,-5.76 -0.47,-1.56 0.39,-7.72l1.91 -1.05 -2.44 -2.05c-1.43,2.58 0.35,0.2 -3.13,2.95 3.5,2.85 4.66,3.51 2.24,7.8 -4.73,-1.82 -1.21,-1 -2.59,-4.21l-1.67 1.51z"/>
   <path class="fil0" d="M188.96 207.94c-0.28,2.69 -0.72,4.17 -0.12,7.07l3.34 -0.14c0.26,-3.41 -0.32,-2.38 1.04,-4.83 3.87,1.41 3.21,2.24 2.56,6.59l-2.05 2.33 -5.27 -1.84c-3.21,-1.84 -2.29,-0.56 -3.69,-3.7 -3.6,0.78 -1.41,0.61 -2.19,-0.49 -4.66,-0.18 -9.08,0.01 -13.7,-0.04 -2.77,-0.04 -10.56,-2.36 -11.18,0.25l0.52 1.82 11.21 1.95c5.96,0.65 7.79,2.67 13.11,2.31 6.51,-0.79 7.93,3.51 12.63,5.9 3.32,-0.6 4.82,-2.94 7.88,-5.06 -0.07,-7.12 0.62,-11.13 -5.91,-14.86l-8.18 2.74z"/>
   <path class="fil14" d="M43.04 245.75c0.32,2.04 -2.41,-0.85 1.03,2.52l4.87 -1.16 0.58 2.81 0.21 -0.02c1.36,-1.8 4.15,-3.48 6.5,-3.59 2.71,-0.12 3.6,1.53 6.35,2.79l1.35 4.9 0.62 -4.57c4.44,-0.84 1.47,-1.49 5.22,0.85l-1.77 1.67c9.74,0.18 5.11,4.11 16.03,-0.48l6.04 2.46 -1.73 -3.44c3.56,-3.1 0.35,-1.32 2.47,-3.6 6.04,-6.48 -3.79,0.4 2.88,-1.57 -0.31,5.33 0.01,3.8 0.96,5.33l4.01 -1.14c-0.53,-4.66 -2.76,-1.54 -3.66,-4.03 -0.2,-0.54 -0.63,-0.51 -0.91,-0.8 1.64,-0.23 2.8,-0.4 4.94,-1.8 -13.96,2.24 -10.22,-1.03 -14.64,-0.68 -1.59,0.13 -3.73,1.83 -6.92,1.95 -3.44,0.14 -4.78,-1.04 -6.98,-1.34 -5.5,-0.73 -1.35,1.44 -7.58,1.01 -3.97,-0.28 -1.74,-1.24 -6.36,-0.32 -5.61,1.12 -7.75,4.29 -13.51,2.25z"/>
   <path class="fil15" d="M58.16 177.99l1.04 -0.21 -1.05 3.63 2.77 -0.48 21.11 -20.36c4.65,1.32 11.41,8.29 15.56,4.41l-1 -2.16 3.21 -2.49 -2.75 -0.78c-8.48,-1.33 -9.46,-5.47 -15.72,-7.5 -4.72,3.89 -21.04,20.93 -23.17,25.94z"/>
   <path class="fil14" d="M73.58 233.91c2.92,4.49 -0.14,0.75 3.96,2.52 3.95,1.69 2.94,-0.87 6.79,-0.18 6.05,1.08 3.01,2.41 3.18,4.37 4.84,4.38 8.6,-2 14.21,-0.85 3.73,0.75 1.47,3.03 7.18,1.53 15.03,-3.96 7.35,2.39 14.51,-0.17 5.04,-1.8 3.29,-2.39 9.51,-1.24 -3.04,-2.77 1.17,-2.42 -9.09,-0.6 -0.07,-0.21 -0.17,-0.55 -0.18,-0.64l0.08 -1.26c0.11,-0.34 -0.28,1.51 0.6,-0.53 -2.08,-0.59 -0.52,-0.42 -2.95,-0.32 -9.82,0.37 -4.47,1.29 -8.25,-1.55 1.67,-1.15 1.61,-2.22 6.12,-0.74 -5.15,-4.37 -5.12,-1.69 -10.62,-0.74 -6.47,1.12 -6.21,-2.11 -11.39,-1.19 -8.95,1.58 -3.34,1.76 -12.26,0.11 -4.54,-0.85 -5.29,2.22 -11.4,1.48z"/>
   <path class="fil16" d="M119.25 234.25c-4.51,-1.48 -4.45,-0.41 -6.12,0.74 3.78,2.84 -1.57,1.92 8.25,1.55 2.43,-0.1 0.87,-0.27 2.95,0.32 -0.88,2.04 -0.49,0.19 -0.6,0.53l-0.08 1.26c0.01,0.09 0.11,0.43 0.18,0.64 10.26,-1.82 6.05,-2.17 9.09,0.6 5.87,2.81 7.56,-0.83 13.36,-0.52 4.1,0.23 3.13,0.46 7.45,-0.09 4.71,-0.59 3.65,0.96 8.51,0.75l2.57 -5.03 -0.42 -2.61c-7.26,-1.85 -6.53,0.32 -12.09,0.89 -2.81,0.29 -6.59,-0.86 -10.86,-0.55 -1.44,0.1 -4.35,0.44 -5.62,0.4 -3.45,-0.09 -2.83,-0.98 -5.86,-1.39 -2.87,-0.39 -6.96,1.77 -10.71,2.51z"/>
   <path class="fil17" d="M145.55 225.78c-2.21,-1.81 -3.03,-3.46 -5.34,-5.29 -3.5,-2.76 -4.36,-1.21 -5.41,-5.67 25.3,0.71 6.27,1.12 27.84,10.67l-17.09 0.29zm-39.87 -12.02l0.41 1.19 5.43 0.02c4.97,1.38 3.86,4.08 8.43,6.58l0.53 -1.07 0.38 -1.74 -3.54 -3.89 12.6 0.41 11.5 10.33 -7.56 0.14 1.2 2.03c0.28,-0.05 0.66,-0.45 0.8,-0.22 1.34,2.31 1.07,-0.33 1.56,-0.52l4.07 1.46c4.94,-1.95 3.99,-2.01 7.94,0.54 5.34,3.46 4.45,0.2 8.86,-0.37 4.77,-0.62 4.31,2.08 9.24,1.12 3.33,-0.65 5.52,-1.98 8.53,-3.18l0.32 -0.88c-2.38,-0.05 -8.08,0.56 -9.08,-1.3 -1.62,0.57 -1.21,0.86 -1.21,-0.91 -4.12,-0.5 -4.69,-2.26 -8.35,-4.07 -2.36,-1.17 -5.82,-2.24 -5.39,-4.49l5.87 0.02 -0.52 -1.82c-4.43,1.33 -44.38,0.81 -52.02,0.62z"/>
   <path class="fil18" d="M123.69 48.84c1.83,1.2 1.29,1.18 1.55,3.03 0.03,0.2 0.03,0.49 0.05,0.71 0.08,0.78 0.18,1.92 0.26,2.76 -4.63,0.5 -3.94,-0.47 -7.72,2.78 1.22,0.77 -1.34,2.47 4.06,0.98 1.49,-0.41 4.43,-4.66 11.01,-0.72 0.32,0.19 0.61,0.51 0.91,0.78 -5.85,4.65 -5.08,1.95 -9.6,-0.92 -4.87,1.82 -0.73,1.17 -5.46,2.89 -1.06,-1.73 -2.75,-2.33 -4.63,-3.43 3.8,-3.48 0.34,-0.74 2.82,-0.71 -4.28,-0.1 -4.99,-0.03 -8.73,-2.34 3.06,4.35 -0.63,2.67 5.44,4.39l-1.16 2.84 2.4 -0.25 3.42 0.94c3.67,6.3 1.13,1.4 6.45,5.47l-0.25 1.11 1.06 0c-0.17,-3.23 -1.35,-1.06 1.24,-2.57 4.42,5.13 4.49,4.54 5.19,7.92 2.01,-2.82 0.89,-2.25 1.82,-4.34 8.79,-0.52 2.11,2.62 8.52,1.76l-0.47 -4.36c-4.86,-0.1 -6.24,1.68 -10.01,-2.91l4.58 -0.83c1.31,0.18 2.84,0.82 4.26,1.39 -0.09,-2.87 -0.94,-3.93 -1.45,-6.29 -10.31,-5.94 -2.86,-1.85 -8.24,-7.86l-7.32 -2.22z"/>
   <path class="fil19" d="M116.23 250.68c-8.11,1.5 -7.15,5.3 -17.37,0.68 -3.48,1.5 -4.77,3.12 -8.79,2.57l-6.04 -2.46c-10.92,4.59 -6.29,0.66 -16.03,0.48l-1.47 1.05c1.51,4.64 -0.21,1.62 5.83,2.33 2.07,0.24 3.85,1.05 6.03,0.84 2.6,-0.26 2.64,-1.49 5.76,-1.28 2.15,0.15 2.99,1.39 5.94,1.56 6.39,0.34 4.62,-2.67 12.05,-0.99 6.48,1.47 7.77,-0.3 13.23,-0.46 2.47,-0.07 4.51,0.53 6.9,0.5 3.61,-0.04 3.72,-0.89 5.86,-1.04 4.37,-0.29 5.86,1.04 12.26,-0.1 6.5,-1.17 4.43,2.02 10.04,2.73 3.96,0.51 10.54,0.01 7.85,-5.27 -2.92,0.9 -0.42,1.14 -4.3,3.12 -0.18,0.09 -0.56,0.15 -0.85,0.2 -4.51,-10.7 6.36,-5.23 9.37,-7.08 -2.31,-2.56 -5.54,-3.34 -8.82,-1.83 -2.82,1.29 -3.16,4.2 -4.33,6.82 -6.14,-0.44 -1.94,-3.5 -10.09,-0.65 -5.8,2.03 -5.42,0.05 -11.16,-1.24 -5.41,1.84 -7.57,5.69 -11.87,-0.48z"/>
   <path class="fil20" d="M114.44 100.78c3.7,0.01 0.81,2.24 4.12,-0.72 -0.93,-3.44 -2.16,-0.42 -2.76,-4.76 4.63,-0.01 3.45,1.46 8.55,0.41 1.14,-4.02 -0.34,-0.3 0.2,-5.82l-5.46 -0.25 -3.2 4.26 -1.52 -3c-0.58,3.26 1.39,1.5 -0.84,4.72 -6.59,-0.06 -1.94,-0.48 -3.06,-2.31 -0.45,-0.74 -1.56,-0.83 -3.13,-2.23 -1.59,4.79 -1.05,3.69 -0.55,4.49l-2.25 -0.75c-0.55,-4.55 1.19,-4.07 -2.63,-7.2 -6.25,2.4 0.29,-2.16 -4.43,7.37 -1.12,-3.06 0.97,-0.58 -1.58,-4.33 -0.87,2.11 -0.32,3.4 -1.93,5.28 -5.44,-3.19 2.3,-2.03 -3.45,-11.29 -2.79,6.18 -2.62,3.29 -3.63,6.91 -1.14,4.08 -1.67,1.64 -1.96,6.98 4.31,0.74 1.47,1.84 5.95,0.52 4.87,-1.43 -0.39,-2.8 4.87,-1.32 2.71,4.19 -4.01,3.02 4.55,5.41 -3.59,-3.53 -2.37,0.15 -1.7,-5.02 3.13,4.99 3.71,2.45 3.77,2.47l9.21 -3.13 2.86 3.31z"/>
   <path class="fil21" d="M22.35 237.21l-1.2 -3.97 2.54 2.58 -0.15 -2.7c0,-5.06 0.12,-6.09 4.09,-8.78 0.85,-3.83 5.85,0.14 7.24,1.66l1.26 5.91c0.09,0.29 0.26,0.65 0.44,0.94 1.38,-3.48 0.43,-0.82 0.59,-5.6l0.42 -1.35 0.23 -1.9 -1.06 -2.51 -8.23 -2.48 1.14 -3.01c-3.91,1.61 -1.31,0.88 -4.21,2.19 -0.68,0.31 -2.45,0.93 -3.29,1.25l2.84 2.87 -3.85 3.9c-11.57,-3.25 -5.9,-25.02 4.59,-17.67l1.86 -0.08 -0.35 -2.25 -1.34 -2.08c-8.47,-0.4 -13.67,1.82 -15.36,11.09 -1.85,10.1 3.73,12.33 9.83,16.7 0.82,3.93 -0.14,2.59 1.97,5.29z"/>
   <path class="fil2" d="M44.38 206.96l-1.13 4.01c10.74,0.93 8.64,-4.3 13.76,0.16 15.56,-2.84 6.88,-1.57 13.78,-0.24l1.02 -1.36c-3.06,-3.24 -2.69,-2.72 -5.69,-1.7l0.35 -9.45 -5.51 -2.49c-2.02,-0.19 -6.16,4.42 -6.41,4.61 -0.55,-1.26 -0.79,-3.39 -0.84,-5.31l-9.33 11.77z"/>
   <path class="fil12" d="M123.96 116.27c-1.59,4.19 1.1,1.02 -2.8,3.83 -4.05,2.91 -0.35,0.35 -3.13,1.2 0.47,-5.28 0.03,-3.2 5.93,-5.03zm3.18 -14.46c-2.27,2.83 -2.79,4.37 -5.92,5.91 -3.66,0.69 -4.28,1.37 -5.42,4.39l-4.5 0.01 -5.45 0.94 5.02 0.9c-5.08,1.86 -3.44,-0.59 -5.53,3.13 5.89,0.93 1.62,-0.67 7.29,-0.3 0.69,4.02 -0.8,0.41 1.57,4.05 -3.01,3.2 -1.34,0.21 -3.79,4.52l3.08 1.25c0.26,0.08 1.42,0.08 1.94,0.15l-1.39 2.59 1.85 -0.54c4.77,-5.88 1.8,-0.82 8.21,-4.83 5.12,-3.21 2.88,-4.17 9.02,-3.89l0.7 -2.36 -1.62 -0.5c-1.48,3.38 0.8,1.76 -5.51,2.43 -1.55,-1.47 -0.87,0.61 -1.28,-3.66l-1.45 0.27c-0.32,-0.02 -2.35,-0.32 -2.68,-0.41l-1.72 -0.99c3.61,-1.88 4.56,-2.97 8.24,-3.57l-1.43 -2.49c0,-0.06 0.91,-2.16 1.05,-2.98 1.52,-2.28 3.15,-4.15 3.83,-7.17 -5.84,-0.15 -2.77,-1.9 -4.11,3.15z"/>
   <path class="fil22" d="M130.56 83.47l-0.01 6.78 -6 -0.36c-0.54,5.52 0.94,1.8 -0.2,5.82 -5.1,1.05 -3.92,-0.42 -8.55,-0.41 0.6,4.34 1.83,1.32 2.76,4.76 -3.31,2.96 -0.42,0.73 -4.12,0.72 -3.4,-0.32 -6.11,-0.46 -9.4,1.62 1.66,1.08 -0.16,1.09 3.39,0.94 2.42,-0.11 -0.64,-0.94 4.01,-0.82l2 4.57c4.19,-0.34 2.71,0.29 6.78,0.63 3.13,-1.54 3.65,-3.08 5.92,-5.91l0.25 -3.75 4.31 -2.11c-2.35,-3.2 0.19,-0.73 -3.48,-2.97 2.38,-1.12 2,-0.66 3.98,0.6 -0.12,-4.19 0.94,-10.68 -0.11,-14.89 -1.85,-7.38 -3.4,-5.39 -6.52,-9.54l-1.06 0 -1.73 4.96c0.84,0.35 4.24,1.72 4.75,2.06 2.44,1.6 1.34,2.29 4.01,3.73l-0.98 3.57z"/>
   <path class="fil23" d="M53.71 195.19c0.05,1.92 0.29,4.05 0.84,5.31 0.25,-0.19 4.39,-4.8 6.41,-4.61 -0.8,-3.02 -0.77,-1.69 0.09,-2.91 1.34,-1.9 0.5,-0.49 2.01,-0.5 2.2,-0.02 5.31,0.24 7.98,-0.05 3.23,-1.6 4.55,-2.42 8.21,-1.4 0.44,-1.35 -1.52,0.57 3.48,3.38l-0.4 -2.37 0.24 -4.14 -4.31 0.23c-3.06,0.24 -0.56,0.38 -2.62,-0.16 0.53,-4.98 -0.01,-0.85 3.27,-3.78l0.21 -8.89c-4.71,-0.3 -9.71,5.69 -13.03,8.99 -3.82,3.8 -8.04,7.74 -12.38,10.9z"/>
   <path class="fil16" d="M90.07 253.93c4.02,0.55 5.31,-1.07 8.79,-2.57 10.22,4.62 9.26,0.82 17.37,-0.68 3.71,1.09 1.23,0.91 3.27,-0.48 -1.98,-2.34 -1.91,-1.62 -2.23,-3.3 0.57,0.02 1.67,0.26 2.19,0.09 2.18,-0.73 -1.19,0.9 1.8,-0.76l-2.89 -2.2c-0.32,-0.11 -0.68,-0.32 -1.01,-0.5 -4.83,-2.31 -5.7,0.12 -9.96,0.43 -5.11,0.38 -3.73,-2.71 -8.37,-1.08 -2.14,1.4 -3.3,1.57 -4.94,1.8 0.28,0.29 0.71,0.26 0.91,0.8 0.9,2.49 3.13,-0.63 3.66,4.03l-4.01 1.14c-0.95,-1.53 -1.27,0 -0.96,-5.33 -6.67,1.97 3.16,-4.91 -2.88,1.57 -2.12,2.28 1.09,0.5 -2.47,3.6l1.73 3.44z"/>
   <path class="fil20" d="M91.59 67.13c-3.71,2.68 -3.46,3.78 -6.19,7.07 -3.39,4.1 -1.27,3.88 -3.67,7.5l1.13 4.67c2.82,-1.9 1.63,2.68 2.57,-2.92 1.26,0.29 0.57,0.2 1.67,0.76 7.07,3.59 2.62,0.34 5.89,4.73 3.09,0.23 2.75,-0.22 5.63,-0.98l-0.72 -1.86 0.88 -7.34 2.68 -0.87c2.53,-0.98 -0.17,1.12 1.71,-1.07l-6.21 -1.24c-1.77,-0.08 -0.46,0.3 -1.99,-0.34 -0.7,5.09 1.46,1.96 -2.06,5.11 -2.87,2.57 -2.47,0.87 -3.31,1.05 -0.14,-4.75 -0.63,-2.54 1.64,-6.73l-3.75 -2.53c3.09,-0.76 2.14,0.39 5.28,-1.43 3.01,-1.74 1.13,1.11 2.27,-3.54 4.39,0.94 5.24,-0.11 9.3,-2.71 -1.35,-2.94 1.97,-1.23 -3.4,-2.54l0.11 0.29 -1.59 -2.07c-4.58,6.11 -2.26,3.1 -7.87,6.99z"/>
   <path class="fil16" d="M87.51 240.62c-0.17,-1.96 2.87,-3.29 -3.18,-4.37 -3.85,-0.69 -2.84,1.87 -6.79,0.18 -4.1,-1.77 -1.04,1.97 -3.96,-2.52 -8.24,-3.17 -5.48,-0.43 -11.74,0.3 -3,0.35 -17.8,-6.27 -8.52,7.21 3.34,-0.33 3.43,-1.62 7.95,-0.57 6.13,1.44 3.78,0.41 9.38,-1.3 3.47,1.36 4.38,3.18 8.64,1.94 4.62,-1.34 1.56,-2.23 8.22,-0.87z"/>
   <path class="fil24" d="M70.32 59.42c5.34,0.48 2.32,-0.4 6.91,0.08 1.27,-3.72 1.64,-4.82 4.79,-6.77 2.75,-1.7 4.54,-3.25 7.24,-4.89 1.57,-1.96 5.82,-1.65 8.56,-2.3l1.82 -0.41c3.32,-3.1 2.42,-0.84 5.99,-1.16 8.85,-0.82 -4.09,-3.99 10.72,0.24 1.61,0.46 4.36,0.56 5.8,0.92 5.2,1.33 1.17,3.32 9.85,4.36 -6.19,-8.75 -24.67,-10.61 -34.31,-8.51 -10.51,2.28 -22.65,8.99 -27.37,18.44z"/>
   <path class="fil22" d="M141.67 110.44c-4.58,1.03 -5.45,0.83 -6.19,7.28l-1.66 0.01 -0.7 2.36c-6.14,-0.28 -3.9,0.68 -9.02,3.89 -6.41,4.01 -3.44,-1.05 -8.21,4.83 9.45,2.25 11.92,-6.68 19.77,-7.39l0.61 -0.42c1.15,-4.03 1.67,-4.14 5.37,-6 7.39,-3.16 12.04,-31.11 8.18,-38.52l-3.37 -1 1.99 4.51c-3.1,7.38 -1.5,3.15 0.67,10.26 -6.07,10.97 -0.25,3.47 -3.39,12.76l-3.47 0.63c0.11,2.54 0.21,4.18 -0.58,6.8z"/>
   <path class="fil25" d="M71.04 192.43l-1.52 4.07 3 0.44c2.69,0.69 3.94,1.82 5.91,4.34 0.47,3.74 -0.21,0.96 1.6,3.69l7.76 1.34 -0.91 4.39c5.86,-1 7.42,0.83 11.02,-0.29l1.55 -2.91 -6.97 -0.09 0.05 -6.85c4.19,2.57 3.48,-1.56 3.67,-2.73l-4.14 -1.92 0.96 -0.58c-4.41,0.32 -0.03,-1.75 -3.71,0.41 1.3,1.95 2.04,1.54 0.7,3.24 -0.67,0.84 -2.44,3.58 -2.27,1.05l-6.61 0.99c0.21,-4.46 3.15,-5.61 3.33,-5.79l0.95 -0.84c0.06,-0.25 0.29,-0.26 0.42,-0.4l-2.91 0.7 -0.59 -2.65 0.4 2.37c-5,-2.81 -3.04,-4.73 -3.48,-3.38 -3.66,-1.02 -4.98,-0.2 -8.21,1.4z"/>
   <path class="fil26" d="M132.2 93.58c-1.98,-1.26 -1.6,-1.72 -3.98,-0.6 3.67,2.24 1.13,-0.23 3.48,2.97l-4.31 2.11 -0.25 3.75c1.34,-5.05 -1.73,-3.3 4.11,-3.15 -0.68,3.02 -2.31,4.89 -3.83,7.17 3.91,-0.71 0.79,-1.31 4.51,0.33 0.44,1.89 0.21,3.18 0.64,5.69 0.76,4.41 -0.16,0.99 -0.37,5.38l1.62 0.5 1.66 -0.01c0.74,-6.45 1.61,-6.25 6.19,-7.28 -2.86,-0.42 0.36,2.48 -3.12,-1.11l0.95 -5.22 -1.69 -4.4 -4.63 -0.19c2.76,-1.4 4.45,-2.78 7.15,-2.79l2.32 6.6c1.77,-2.48 3.05,-0.41 1.44,-6.32l-4.23 -6.97c-6,-6.22 2.36,0.03 -2.73,-1.48l-0.23 5.32c-5.43,-1.76 -2.24,0.31 -4.7,-0.3z"/>
   <path class="fil3" d="M27.25 206.21l0.35 2.25 -1.86 0.08 1.61 2.28 -0.14 -2.86c1.95,1.43 1.26,-1.18 2.6,5.77 0.41,-4.83 0.27,-1.72 1.74,-1.57l-0.34 1.74c5.05,-2.91 10.44,-13.05 14.85,-17.19 3.04,-2.84 5.59,-3.91 7.96,-7.8 2.29,-3.74 4.15,-5.34 6.9,-7.98l-2.77 0.48 1.05 -3.63 -1.04 0.21 -28.38 29.35 -2.53 -1.13z"/>
   <path class="fil27" d="M100.11 178.08l-2.13 1.48c0.14,0.26 0.27,0.61 0.36,0.81 2.55,5.63 2.04,3.9 8.27,4.08 -2.01,3.95 -1.62,1.19 -5.13,4.53 -0.54,5.54 2.08,0.82 -1.25,6.53l3.3 -0.02 2.28 -3.46 -3.02 -1.94c5.91,-1.67 6.05,-1.68 8.65,2.13 3.12,-0.28 3.78,-0.87 5.92,-0.23l1.1 -5.12 2.53 -0.25c-1.41,-2.62 -10.16,-8.75 -12.98,-9.5 0.99,2.09 -1.14,1.48 1.18,1.74 -2.02,-0.21 -4.27,-0.52 -5.91,-0.49l-1.27 0.16c-0.13,0 -0.44,0.05 -0.55,0.04 -2.53,-0.05 1.07,1.41 -1.35,-0.49z"/>
   <path class="fil1" d="M180.75 223.62l-0.22 4.82 3.36 -0.85 1.24 -1.8c2.05,3.18 1.82,2.19 0.73,5.56 -6.57,2.08 -11.85,-1.76 -16.44,0.56 2.66,4.21 -0.5,0.42 3.97,2.55 2.83,1.35 1.96,1 3.11,3.02l1.17 0.8c0.14,0.12 0.7,0.77 0.9,0.93 2.09,1.72 -1.26,0.25 2.52,1.49 9.31,-3.45 10.34,-2.16 11.63,-13.48l-6.14 -5.56c-2.76,0.01 -3.98,-0.62 -5.83,1.96z"/>
   <path class="fil28" d="M46.98 222.31c-1.19,3.04 -5.13,1.69 -9.17,1.69l-0.23 1.9c3.49,-0.19 11.28,0.37 14.13,-0.58 4.67,-1.55 1.99,-6.42 9.04,-5.24 -2.44,3.2 -3.87,1.45 -4.42,5.37 7.22,0.24 14.98,2.04 17.67,-5.45l3.17 -3.7 2.73 -0.46c-3.83,-1.46 -8.39,-0.85 -12.56,-0.76l-0.43 1.91c3.55,-0.75 3.06,-1.15 5.9,0.81 -1.28,4.35 -6.45,6.65 -10.9,6.03 -0.36,-4.56 1.59,-4.24 4.4,-6.6l-1.32 0.25 -2.17 -2.21c-3.25,-0.33 -11.92,-1.64 -13.46,1.19l6.52 0.37c-1.34,3.83 -5.9,3.61 -8.9,5.48z"/>
   <path class="fil29" d="M99.64 45.13l5.38 2.18c3.98,-1.55 6.69,-3.36 10.02,1.05 4.13,-0.91 5.15,-2.03 8.65,0.48l7.32 2.22c5.38,6.01 -2.07,1.92 8.24,7.86 0.51,2.36 1.36,3.42 1.45,6.29 5.24,4.91 3.94,1.92 3.64,9.27l2.11 1 3.37 1c-1.05,-6.19 -5.64,-18.12 -11.08,-20.89l-3.07 -0.54 -0.43 -3.03c-1.07,-2.32 -0.78,-2.01 -3.24,-2.53 -8.68,-1.04 -4.65,-3.03 -9.85,-4.36 -1.44,-0.36 -4.19,-0.46 -5.8,-0.92 -14.81,-4.23 -1.87,-1.06 -10.72,-0.24 -3.57,0.32 -2.67,-1.94 -5.99,1.16z"/>
   <path class="fil30" d="M146.94 177.79l5.16 -4.24c7.21,2.4 16.61,18.13 24.16,22.34l0.03 -1.82 4.11 0.53c-3.46,-6.75 -16.18,-16.2 -21.4,-24.01 -0.27,0.06 -0.63,0.15 -0.79,0.22 -0.14,0.07 -0.55,0.18 -0.71,0.26 -1.38,0.73 -0.59,3.47 -1.54,1.24 -0.07,-0.16 -0.23,0.35 -0.38,0.49 -4.84,-1.28 -9.11,-0.67 -8.64,4.99z"/>
   <path class="fil31" d="M126.53 180.24c0.79,1.26 1.17,2.08 2.1,3.06 2.09,2.22 1.09,0.2 3.36,3.35l1.03 -0.9c2.27,-1.05 3.8,4.99 4.35,6.69 3.75,0.59 3.76,-0.09 5.44,2.36 -4.38,0.7 -5.78,0.16 -8.78,3.2 0.28,0.24 0.66,0.23 0.87,0.68 0.45,0.93 -2.05,2.16 5.64,0.48 1.83,-0.4 3.68,-1.09 5.54,-1.51l-0.61 -2.12c-2,-6.41 1.41,5.69 -0.29,-4.19l2.18 0.29c-1.7,-3.75 -11.18,-13.18 -15.38,-13.29l-1.87 2.46 -3.58 -0.56z"/>
   <path class="fil32" d="M22.35 237.21c-0.74,7.49 9.8,7.68 11.19,7.85 1.9,8.97 5.22,8 11.06,11.69 4.41,2.79 0.88,9.16 10.66,12.34l1.87 0.12 0.87 -2.24c-4.01,-1.02 -5.49,-3.89 -6.97,-6.98 -1.99,-4.17 -1.02,-5.01 -0.23,-9.11l-1.07 -0.98 -0.21 0.02 -1.58 3.77 -7.52 -1.7c-3.14,-2.04 -1.58,-0.48 -3.25,-5.28 -0.82,-2.36 -0.83,-0.87 0.04,-3.55 -6.54,0.93 -2.06,0.51 -3.53,-1.11 -8.15,-1.13 -5.38,-1.77 -9.99,-6.23l-2.54 -2.58 1.2 3.97z"/>
   <path class="fil33" d="M102.91 152c-0.74,1.22 -0.59,1.67 -0.65,1.9l0.36 1.86 4.87 -0.35c8.77,-1.75 12.48,12.36 18.63,6.67 1.85,-2.17 -1.2,-1.43 2.52,-2.28l-4.63 -0.92c-2.07,-1.1 -0.7,-0.13 -2.31,-1.74 -0.83,-2.83 -8.68,-10.2 -11.16,-11.08 -3.72,1.38 -4.09,3.95 -7.63,5.94z"/>
   <path class="fil34" d="M145.55 225.78l17.09 -0.29c-21.57,-9.55 -2.54,-9.96 -27.84,-10.67 1.05,4.46 1.91,2.91 5.41,5.67 2.31,1.83 3.13,3.48 5.34,5.29z"/>
   <path class="fil35" d="M79.73 116.64c-5.16,-0.29 -5.98,-3.08 -6.65,-7.27 0.3,0.1 0.74,-0.02 0.87,0.38l1.51 0.73c3.82,2.1 -0.72,0.04 1.46,0.91l0.88 -1.62 -8.16 -2.81c-1.23,-6.57 -0.61,-3.26 0.11,-8.96 6.1,0 4.92,2.16 9.45,0.03l0.21 2.02 2.04 -0.62 -1.91 -4.55 2.53 -0.96 -0.03 -1.89 -4.1 0.16 -0.37 2.96c-3.62,-1.23 -0.44,-0.67 -5.18,1.23l-1.7 -4.39c-3.65,-0.1 -0.67,-1.42 -3.8,0.9l-0.47 -2.38c-3.76,4.21 -0.51,6.57 0.02,8.75 0.94,3.82 -0.81,4.23 2.27,8.76 1.52,2.24 2.64,4.24 4.06,6.92 0.93,1.76 0.75,2.69 2.89,3.14 4.23,0.89 3.37,-0.85 4.07,-1.44z"/>
   <path class="fil36" d="M197.14 205.2c6.53,3.73 5.84,7.74 5.91,14.86 -3.06,2.12 -4.56,4.46 -7.88,5.06 -4.7,-2.39 -6.12,-6.69 -12.63,-5.9 -1.5,1.14 -0.99,0.91 -2.78,1.69 -0.01,0 -2.31,0.72 -2.55,0.81l3.51 0.32 -1.42 2.57 1.45 -0.99c1.85,-2.58 3.07,-1.95 5.83,-1.96l6.14 5.56 2.95 1.51 3.3 -2.29c2.59,-0.91 4.58,-3.58 6.52,-5.85 0.63,-6.59 1.89,-14.07 -4.67,-17 -4.05,-0.07 -3.84,-0.54 -8.33,0.98l4.65 0.63z"/>
   <path class="fil37" d="M99.88 121.99l3.41 -1.79 -4.73 -3.95 5.33 0.58 0.97 -3.97 -1.46 -0.14 -0.22 -1.36c-8.3,-0.02 -8.65,-2.15 -15.01,-5.36 1.75,7.19 -0.05,6.47 0.52,12.56l5.91 -0.52c3.76,3.71 0.16,2.86 5.28,3.95z"/>
   <path class="fil38" d="M60.96 195.89l5.51 2.49 -0.35 9.45c3,-1.02 2.63,-1.54 5.69,1.7 2.64,-4.54 -0.98,-7.6 6.62,-8.25 -1.97,-2.52 -3.22,-3.65 -5.91,-4.34l-3 -0.44 1.52 -4.07c-2.67,0.29 -5.78,0.03 -7.98,0.05 -1.51,0.01 -0.67,-1.4 -2.01,0.5 -0.86,1.22 -0.89,-0.11 -0.09,2.91z"/>
   <path class="fil39" d="M94.97 75.24c-3.7,0.96 -0.8,1.4 -3.87,-0.05 0.41,-0.37 2.46,-2.47 2.55,-2.56 4.12,-3.83 4.58,-5.09 8.63,-5.15 -0.05,2.57 1.53,2.85 -1.41,4.71 -2.81,1.78 -1.22,-0.73 -5.27,0.69 3.21,2.34 3.07,1.6 7.42,0.37 1.35,-3.59 -0.44,-5.44 4.54,-5.84l-0.8 4.49c6.03,8.25 0.49,-1.5 8.22,5.42 0.06,-1.9 0.48,-0.98 2.46,-3.21l-1.33 -1.08c-2.58,1.19 1.22,3.58 -3.03,0.24l1.72 -4.05c-5.98,-0.07 1.94,4.57 -6.94,2.54 -0.36,-3.72 0.31,-3.48 2.16,-6.9l-3.97 -1.61c-0.11,-0.05 -2.37,-1.54 -2.48,-1.62l-2.52 0.58 -0.11 -0.29c5.37,1.31 2.05,-0.4 3.4,2.54 -4.06,2.6 -4.91,3.65 -9.3,2.71 -1.14,4.65 0.74,1.8 -2.27,3.54 -3.14,1.82 -2.19,0.67 -5.28,1.43l3.75 2.53c-2.27,4.19 -1.78,1.98 -1.64,6.73 0.84,-0.18 0.44,1.52 3.31,-1.05 3.52,-3.15 1.36,-0.02 2.06,-5.11z"/>
   <path class="fil0" d="M22.16 219.44l-2.73 -0.55c-0.68,-4.34 -0.93,-6.74 3.2,-7.56 3.64,4.77 -1.96,2.99 3.23,4.58l1.49 -5.09 -1.61 -2.28c-10.49,-7.35 -16.16,14.42 -4.59,17.67l3.85 -3.9 -2.84 -2.87z"/>
   <path class="fil40" d="M125.94 196.08l-0.33 0.63c-2.9,0.22 -6.5,2.87 -8.22,4.72 -4.59,-3.38 -6.43,-5.27 -12.4,-4.08l4.63 4.87c2.42,1.9 5.23,1.13 7.8,0.49 2.39,3.31 2.37,3.55 6.47,1.17 3.15,-1.83 2.21,0.57 7.09,-2.7l-1.36 -4.73 -3.68 -0.37z"/>
   <path class="fil41" d="M99.88 121.99c-1.66,-0.13 -1.45,0.02 -2.35,1.42 -0.14,0.22 -0.23,0.72 -0.35,1.07 0.75,0.4 -0.45,2.22 5.13,0.2 6.09,-4.73 0.64,-3.82 5.67,-6.48l0.84 5.58 -4.05 3.35 -3.51 -1.03c-1.79,1.01 -1.64,-0.42 -0.45,1.71 3.64,0.61 3.28,0.33 6.29,-1.5 3.94,1.53 2.51,1.9 6.94,3.04l1.39 -2.59c-0.52,-0.07 -1.68,-0.07 -1.94,-0.15l-3.08 -1.25c2.45,-4.31 0.78,-1.32 3.79,-4.52 -2.37,-3.64 -0.88,-0.03 -1.57,-4.05 -5.67,-0.37 -1.4,1.23 -7.29,0.3 2.09,-3.72 0.45,-1.27 5.53,-3.13l-5.02 -0.9 -0.99 -0.2 -0.97 3.97 -5.33 -0.58 4.73 3.95 -3.41 1.79z"/>
   <path class="fil42" d="M149.78 166.94l-2.35 2.36 -3.74 -1.12 -1.01 0.37 -1.8 1.19c0.32,-0.08 2.45,1.3 -0.06,-0.41 -0.74,-0.51 -1.36,-0.64 -2.14,-0.84l0.63 2.42c1.11,2.93 4.3,5.32 6.69,7.62l0.94 -0.74c-0.47,-5.66 3.8,-6.27 8.64,-4.99 0.15,-0.14 0.31,-0.65 0.38,-0.49 0.95,2.23 0.16,-0.51 1.54,-1.24 0.16,-0.08 0.57,-0.19 0.71,-0.26 0.16,-0.07 0.52,-0.16 0.79,-0.22 -2.33,-2.18 -3.93,-4.47 -6.81,-5.69l-2.41 2.04z"/>
   <path class="fil36" d="M176.88 243.3l-0.87 3.43c-1.84,3.4 -4.28,6.59 -8.52,6.54 -5.14,-1.87 -0.09,-2.34 -5.25,-3.34 3.07,7.23 2.92,7.53 -0.82,13.79l1.23 1.35c6.54,-4.68 -1.46,-6.11 9.73,-10.53 6.45,-2.54 6.77,-5.1 7.7,-11.5l1.01 -2.34c-3.78,-1.24 -0.43,0.23 -2.52,-1.49 -0.2,-0.16 -0.76,-0.81 -0.9,-0.93l-1.17 -0.8 -1.29 0.49 1.67 5.33z"/>
   <path class="fil31" d="M89.28 188.99l2.33 -1.14 0.01 1.57 4.14 3.28c3.39,-2.97 0.06,-3.48 4.3,-2.83 -0.96,5.43 -1.47,1.85 -1.95,5.65 2.32,0.93 2.16,1.63 5.42,-0.03l-3.3 0.02c3.33,-5.71 0.71,-0.99 1.25,-6.53 3.51,-3.34 3.12,-0.58 5.13,-4.53 -6.23,-0.18 -5.72,1.55 -8.27,-4.08 -0.09,-0.2 -0.22,-0.55 -0.36,-0.81 -3.59,3.17 -6.75,5.04 -8.7,9.43z"/>
   <path class="fil36" d="M176.26 195.89c1.34,3.77 6.18,7.26 9.28,10.22l-0.19 2.97 -0.75 2.22 0.17 2.12c1.4,3.14 0.48,1.86 3.69,3.7l0.38 -2.11c-0.6,-2.9 -0.16,-4.38 0.12,-7.07l0.88 -3.37c-3.8,-1.1 -2.58,-0.1 -4.37,-4.46 -1.2,-2 -3.11,-4.66 -5.07,-5.51l-4.11 -0.53 -0.03 1.82z"/>
   <path class="fil21" d="M115.16 289.33l0.69 3.89c-1.37,-0.81 -0.22,0.57 -2.53,-1.97 -0.62,-0.68 -0.38,-0.71 -0.83,-1.52l-1.3 2.82c-0.04,-0.16 -0.27,0.37 -0.42,0.54 3.85,5.64 -1.98,2.16 1.65,7.41l3.99 0.53c2.99,-2.99 1.25,-1.83 4.61,-4.02l0.65 -2.19 -3.05 -1.36 2.02 -1.27 -1.21 -2.81 -3.43 -4.43c-1.83,-0.56 -1.1,-0.68 -3.41,-0.29l2.57 4.67z"/>
   <path class="fil43" d="M120.86 218.74c5.17,-3.49 10.58,-1.01 12.52,3.96 -7.27,1.31 -6.14,0.29 -12.01,-2.7l2.85 5.63 9.64 0.1 7.56 -0.14 -11.5 -10.33 -12.6 -0.41 3.54 3.89z"/>
   <path class="fil44" d="M166.09 223.5l6.16 -1.67c-0.49,-3.28 0.2,-0.05 -1.51,-3.26 -1.69,-0.53 -1.31,0.06 -1.31,-1.66l-11.21 -1.95 -5.87 -0.02c-0.43,2.25 3.03,3.32 5.39,4.49 3.66,1.81 4.23,3.57 8.35,4.07z"/>
   <path class="fil45" d="M70.32 59.42c-4.09,2.15 -7.51,13.73 -8.27,18.57l1.67 -1.51c1.38,3.21 -2.14,2.39 2.59,4.21 2.42,-4.29 1.26,-4.95 -2.24,-7.8 3.48,-2.75 1.7,-0.37 3.13,-2.95l2.44 2.05 2.54 -6.62 0.23 -4.52 4.43 -0.15 0.39 -1.2c-4.59,-0.48 -1.57,0.4 -6.91,-0.08z"/>
   <path class="fil46" d="M131.9 276.99c1.23,5.75 -0.42,6.85 3.49,9.81l-4.52 0.4 -1.68 4.1c-0.51,-0.07 -2.88,-0.34 -3.13,-0.31 -3.2,0.38 -0.32,-0.36 -2.3,0.75l0.55 1.24c5.36,0.04 8.32,-0.6 12.39,-2.96l-0.15 -17.59 -2.26 -1.3 -2.64 0.22 1.71 4.07c0.12,-0.15 0.44,0.67 0.66,1 -0.71,1.52 -0.13,1.05 -2.12,0.57z"/>
   <path class="fil47" d="M82.41 292.92c0.83,-2.47 -0.3,-2.1 1.06,-1.2l-5.85 -0.9 1.46 -1.15 -2.58 -1.14 1.23 -10.98 -1.94 -1.47 2.57 -3.04c-1.91,-1.75 -0.12,-0.67 -2.76,-0.63l-1.7 0.84c-0.55,3.72 -0.08,6.28 -0.43,9.7 -0.29,2.91 -1.42,4.83 -1.77,8.07 3.98,2.4 5.62,4 10.71,1.9z"/>
   <path class="fil48" d="M40.42 251.99l7.52 1.7 1.58 -3.77 -0.58 -2.81 -4.87 1.16c-3.44,-3.37 -0.71,-0.48 -1.03,-2.52l0 -3.55c0.83,-3.08 -0.31,-0.76 2.46,-3.21l-1.15 -2.49c-3.25,2.05 -4.16,1.95 -5.37,5.92 -1.18,3.9 0.03,5.85 1.44,9.57z"/>
   <path class="fil23" d="M117.36 191.99c4.41,2.53 2.06,3.98 7.41,2.84l0.84 1.88 0.33 -0.63c2.28,-0.08 2.86,0.96 5.04,2.06 4.17,-3.56 0.84,-0.23 1.42,-3.13 -2.81,-2.74 -7.81,-7.44 -11.41,-8.39l-2.53 0.25 -1.1 5.12z"/>
   <path class="fil12" d="M73.24 75.74l0 1.36 3.79 1.23 1.31 5.37 3.39 -2c2.4,-3.62 0.28,-3.4 3.67,-7.5 2.73,-3.29 2.48,-4.39 6.19,-7.07 -2.16,-2.42 2.24,-1.62 -2.81,-2.02l-4.51 7.05c-4.4,-2.72 -3.8,0.7 -6.69,4.46l-4.34 -0.88z"/>
   <path class="fil49" d="M121.7 157.14c1.61,1.61 0.24,0.64 2.31,1.74l4.63 0.92c-3.72,0.85 -0.67,0.11 -2.52,2.28l6.41 1.75c0.19,-2.76 -0.95,-1.08 1.62,-2.21 2.23,0.51 3.02,2.57 4.49,5.24l-2.64 0.54 3.31 3.51 -0.63 -2.42c0.78,0.2 1.4,0.33 2.14,0.84 2.51,1.71 0.38,0.33 0.06,0.41l1.8 -1.19 -2.22 -3.58 -10.38 -9.67 -8.38 1.84z"/>
   <path class="fil50" d="M23.54 233.12l3.77 -0.95c1.64,3.06 0.77,1.64 1.53,5.09 3.26,0.65 2.15,-0.25 4.49,2.21l0.77 -3.49c4.8,2.2 2.49,0.52 3.09,2.77 2.36,-1.35 1.45,-1.26 3.68,-2.5 4.51,-2.51 2.04,0.79 4.16,-2.9 -5.89,-3.17 -8.34,3.82 -16.65,-1.35l0.05 -4.57 -1.29 4.47c-1.79,-1.99 -4.4,1.21 0.49,-7.56 -3.97,2.69 -4.09,3.72 -4.09,8.78z"/>
   <path class="fil42" d="M104.28 269.09c-3.7,-0.26 -3.76,-0.93 -7.35,-1.16 -0.29,-0.01 -3.8,-0.03 -3.97,-0.01 -4.76,0.56 -2.01,-0.42 -3.65,1.64l4.87 -0.4c-2.01,2.2 0.34,0.16 -3.34,1.52l-4.56 2.12c4.09,1.93 3.65,1.76 4.2,3.81 -2.55,-1.63 -1.62,-1.48 -5.77,-0.29l1.45 2.81c6.99,-2.26 0.83,1.12 7.18,-3.62 5.66,-4.23 1.06,0.94 4.49,-5.9 4.57,-0.56 2.29,-1.39 4.99,1.85l1.46 -2.37z"/>
   <path class="fil51" d="M82.32 183.13c-0.14,2.36 -0.29,0.5 0.4,2.43 0.07,0.19 1.09,2.4 1.11,2.46 3.14,-9.23 1.38,-6.12 5.16,-7.02 2.95,-2.91 6.07,-7.51 5.8,-11.82 -4.71,0.25 -9.93,9.41 -12.47,13.95z"/>
   <path class="fil52" d="M114.8 69.22l-1.72 4.05c4.25,3.34 0.45,0.95 3.03,-0.24l8.65 -4.99c-5.32,-4.07 -2.78,0.83 -6.45,-5.47l-3.42 -0.94 -1.37 3.43 1.28 4.16z"/>
   <path class="fil53" d="M192.72 227.22c-1.29,11.32 -2.32,10.03 -11.63,13.48l-1.01 2.34 7.36 -0.17c6.2,-2.29 8.03,-12.51 8.03,-12.52 1.68,-3.1 1.04,0.52 3.5,-3.91l-3.3 2.29 -2.95 -1.51z"/>
   <path class="fil54" d="M123.96 116.27l1.45 -0.27c1.58,-3.16 2.57,-3.59 6.19,-3.81 -2,3.44 -1.33,-0.11 -2.04,4.86l2.64 0.18c0.21,-4.39 1.13,-0.97 0.37,-5.38 -0.43,-2.51 -0.2,-3.8 -0.64,-5.69 -3.72,-1.64 -0.6,-1.04 -4.51,-0.33 -0.14,0.82 -1.05,2.92 -1.05,2.98l1.43 2.49c-3.68,0.6 -4.63,1.69 -8.24,3.57l1.72 0.99c0.33,0.09 2.36,0.39 2.68,0.41z"/>
   <path class="fil32" d="M27.35 210.82l-1.49 5.09c-5.19,-1.59 0.41,0.19 -3.23,-4.58 -4.13,0.82 -3.88,3.22 -3.2,7.56l2.73 0.55c0.84,-0.32 2.61,-0.94 3.29,-1.25 2.9,-1.31 0.3,-0.58 4.21,-2.19l1.55 -2.1 0.34 -1.74c-1.47,-0.15 -1.33,-3.26 -1.74,1.57 -1.34,-6.95 -0.65,-4.34 -2.6,-5.77l0.14 2.86z"/>
   <path class="fil55" d="M108.21 54.65c3.74,2.31 4.45,2.24 8.73,2.34l0.22 -5.13c-4.77,1.03 -5.06,3.02 -9.29,0.53 1.87,-4.61 -0.43,-0.33 4.82,-3.42l-4.71 -1.24c-3.51,5.13 -0.21,2.4 -4.66,6.17l1.18 5.97c2.67,-3 0.84,-2.22 3.71,-5.22z"/>
   <path class="fil56" d="M72.22 79.33c2.84,3.65 2.38,1.63 2.33,5.83 2.81,-1.3 0.45,0.76 2.76,-2.27l0.66 4.53 2.92 0.2c0.88,-0.56 1.57,-0.58 1.97,-1.25l-1.13 -4.67 -3.39 2 -1.31 -5.37 -3.79 -1.23 0 -1.36c-0.6,-9.39 0.41,-2.43 -1.82,-4.66 -0.51,1.38 -1.23,-0.53 -0.74,4.61 0.37,3.98 0.01,1.38 1.54,3.64z"/>
   <path class="fil11" d="M114.8 69.22l-1.28 -4.16 1.37 -3.43 -2.4 0.25c-4.26,0.26 -3.72,-2.84 -8.92,-0.25 0.11,0.08 2.37,1.57 2.48,1.62l3.97 1.61c-1.85,3.42 -2.52,3.18 -2.16,6.9 8.88,2.03 0.96,-2.61 6.94,-2.54z"/>
   <path class="fil19" d="M49.73 249.9l1.07 0.98c5.33,-1.72 3.8,-3.58 10.32,-1.1 0.63,3.55 1.24,2.85 -0.95,6.3 -1.93,-0.33 -0.78,0.59 -2.23,-0.81l-1.51 -2.7c-1.59,3.1 -1.47,1.52 -0.36,5.45l6.12 -0.3 0.15 0.08 3.79 -1.83 -1.23 -1.69 -0.97 -0.28 -1.35 -4.9c-2.75,-1.26 -3.64,-2.91 -6.35,-2.79 -2.35,0.11 -5.14,1.79 -6.5,3.59z"/>
   <path class="fil57" d="M170.25 245.46c3.22,-1.21 1,0.15 3.51,-2.93l3.12 0.77 -1.67 -5.33c-4.13,-2.44 -3.62,-2.91 -8.94,-2.64 -1.35,3.38 -1.72,2.64 -0.75,5.97 3.29,0.23 3.64,-1.09 6.33,-0.76l-1.6 4.92z"/>
   <path class="fil30" d="M105.35 298.5c-0.82,2.59 1.8,1.55 -2.72,1.65 -2.28,-2.33 -0.98,0.31 -1.23,-3.75 -1.52,0.79 -2.2,-2.16 -1.08,2.23l1.03 4.82c5.01,0.36 -0.79,-1.91 6.55,-0.57l-1.35 2.1 3.63 -0.26 2.24 -4.22c-3.63,-5.25 2.2,-1.77 -1.65,-7.41 -3.12,-0.96 -0.31,-1.35 -2.93,-0.27 0.65,5.95 1.81,1.98 0.1,8.91 -1.28,-1.17 -0.88,0.74 -2.59,-3.23z"/>
   <path class="fil10" d="M71.75 90.99l3.82 2.47c1.52,-2.17 1.2,-1.74 2.49,-4.22l-0.12 2.95 4.1 -0.16 -1.15 -4.41 -2.92 -0.2 -0.66 -4.53c-2.31,3.03 0.05,0.97 -2.76,2.27 0.05,-4.2 0.51,-2.18 -2.33,-5.83 -3.47,0.71 0.01,-2.4 -3.6,1.4 0.49,0.55 3.41,4.57 3.47,4.62 2.21,2 2.37,-0.66 4.56,4.07 -3.59,2.43 0.68,1.33 -4.9,1.57z"/>
   <path class="fil58" d="M81.43 217.59l-0.89 -0.99 -5.44 7.34c3.16,0.9 3.11,0.49 6.25,0.37 0.11,-0.01 3.37,-0.14 3.38,-0.14 2.87,-0.88 0.71,0.59 2.56,-2.05l-7.76 0.24c2.81,-2.88 0.3,-2.42 2.97,-3.45 3.84,-1.48 3.99,0.57 4.84,2.49 2.54,-1.73 2.39,-2.47 3.02,-5.68 -3.65,-0.12 -6.1,0.93 -8.93,1.87z"/>
   <path class="fil34" d="M43.93 218.92c0.9,2.5 -1.18,1.13 1.4,2.32 -5.65,-1.81 -2.19,-1.76 -5.88,1 1.44,0.76 -0.88,1.45 3.9,1.39 3.72,-0.04 1.05,0.16 3.63,-1.32 3,-1.87 7.56,-1.65 8.9,-5.48l-6.52 -0.37c-3.3,0.3 -2.77,0.22 -5.43,2.46z"/>
   <path class="fil59" d="M116 284.95l3.43 4.43c4.43,2.39 1.35,1.23 2.25,-1.38l-0.21 -0.56c-10.51,-13.77 -3.66,-5.15 -12.43,-8.71 -4.06,-1.64 -0.46,-3.67 -6.25,-0.57 4.07,2.68 6.47,3.78 11.57,4.51l1.64 2.28z"/>
   <path class="fil60" d="M85.85 192.17l-0.02 1.82c-0.13,0.14 -0.36,0.15 -0.42,0.4l-0.95 0.84c-0.18,0.18 -3.12,1.33 -3.33,5.79l6.61 -0.99c-0.17,2.53 1.6,-0.21 2.27,-1.05 1.34,-1.7 0.6,-1.29 -0.7,-3.24 3.68,-2.16 -0.7,-0.09 3.71,-0.41 -3,-2.65 -1.22,-1.81 -5.36,-2.37 1.42,-5.64 0.26,-1.69 -0.31,-3.39l-1.5 2.6z"/>
   <path class="fil42" d="M129.7 283.42c-0.78,3.65 2.35,0.03 -1.49,3.8 -1.57,-2.77 -0.42,-0.51 -1.31,-3.03 -0.45,-1.29 -0.11,-0.81 -1.03,-2.91l-1.81 5.62c-1.67,-1.63 -1.86,-0.07 -0.92,-2.25l1.27 2.4c-2.02,1.81 0.33,2.13 -2.94,0.39l0.21 0.56c2.22,2.56 1,0.27 2.08,3.74 1.98,-1.11 -0.9,-0.37 2.3,-0.75 0.25,-0.03 2.62,0.24 3.13,0.31l1.68 -4.1 4.52 -0.4c-3.91,-2.96 -2.26,-4.06 -3.49,-9.81l-0.68 -0.99 0.35 8.05c-1.38,0.22 0.38,2.24 -1.87,-0.63z"/>
   <path class="fil49" d="M97.05 159.55l2.75 0.78 -3.21 2.49 1 2.16c3.84,-1.17 8.01,-5.96 9.9,-9.57l-4.87 0.35 -0.36 -1.86 -1.67 0.22c-2.46,3.24 -2.36,1.49 -3.54,5.43z"/>
   <path class="fil61" d="M82.32 183.13l-3.41 1.06c-3.28,2.93 -2.74,-1.2 -3.27,3.78 2.06,0.54 -0.44,0.4 2.62,0.16l4.31 -0.23 -0.24 4.14 0.59 2.65 2.91 -0.7 0.02 -1.82c-1.94,-1.7 -1.59,1.18 -1.42,-2.86 0.01,-0.17 1.18,-2.48 1.34,-2.74 1.54,-2.49 2,-2.83 3.22,-5.57 -3.78,0.9 -2.02,-2.21 -5.16,7.02 -0.02,-0.06 -1.04,-2.27 -1.11,-2.46 -0.69,-1.93 -0.54,-0.07 -0.4,-2.43z"/>
   <path class="fil62" d="M77.8 109.77l0.49 -1.28c-5.82,-2.61 -8.95,1.04 -6.89,-8.1 2.4,0.75 1.47,0.34 3.09,1.83 3.19,2.95 0.11,2.21 5.41,-0.14l-0.49 -2.03 -0.21 -2.02c-4.53,2.13 -3.35,-0.03 -9.45,-0.03 -0.72,5.7 -1.34,2.39 -0.11,8.96l8.16 2.81z"/>
   <path class="fil63" d="M76.5 288.53l2.74 0.02 1.14 -3.27c-1.29,-0.77 -4.36,1.7 -1.53,-5.76 0.96,-2.54 1.84,-3.2 4.01,-4.11l1.47 -3.42c-4.29,-0.21 -5.98,-2.71 -8.73,0.42 2.64,-0.04 0.85,-1.12 2.76,0.63l-2.57 3.04 1.94 1.47 -1.23 10.98z"/>
   <path class="fil64" d="M81.43 217.59c2.83,-0.94 5.28,-1.99 8.93,-1.87 -0.63,3.21 -0.48,3.95 -3.02,5.68l-0.05 0.72c-1.85,2.64 0.31,1.17 -2.56,2.05 -0.01,0 -3.27,0.13 -3.38,0.14 -3.14,0.12 -3.09,0.53 -6.25,-0.37 -2.01,0.96 -1.35,-0.36 -1.48,1.66l14.51 0.2 5.22 -11.29 -11.21 0.69 -0.71 2.39z"/>
   <path class="fil44" d="M66.31 217.23c-2.81,2.36 -4.76,2.04 -4.4,6.6 4.45,0.62 9.62,-1.68 10.9,-6.03 -2.84,-1.96 -2.35,-1.56 -5.9,-0.81l-0.6 0.24z"/>
   <path class="fil65" d="M120.86 218.74l-0.38 1.74 0.89 -0.48c5.87,2.99 4.74,4.01 12.01,2.7 -1.94,-4.97 -7.35,-7.45 -12.52,-3.96z"/>
   <path class="fil54" d="M140.83 82.67c-3.37,0.25 1.2,-1.03 -3.64,0.61 -3.72,1.26 -1.05,0.36 -3.05,1.71l7.7 2.59c2.17,3.92 -0.32,3.07 3.73,5.72 2.62,-4.29 1.89,-2.28 -4.74,-10.63z"/>
   <path class="fil66" d="M23.69 235.82c4.61,4.46 1.84,5.1 9.99,6.23l-0.35 -2.58c-2.34,-2.46 -1.23,-1.56 -4.49,-2.21 -0.76,-3.45 0.11,-2.03 -1.53,-5.09l-3.77 0.95 0.15 2.7z"/>
   <path class="fil67" d="M106.53 216.5l0.99 8.86 7.06 -0.23 1.24 -1.94 -1.36 -2.01c-0.85,3.19 -1.54,2.36 -4.94,1.62 -1.38,-3.61 -1.47,-1.35 -0.56,-5.29l4.57 1.44 -2.01 -3.98 -5.43 -0.02 0.44 1.55z"/>
   <path class="fil68" d="M126.95 243.69l-0.84 -0.23 -0.36 4.4c-5.18,1.4 -3.2,-0.97 -2.84,4.28l10.85 -3.03 -4.65 -0.78 2.94 -3.97 -5.1 -0.67z"/>
   <path class="fil69" d="M170.74 218.57l4.11 0.52c-0.48,5.99 -2.39,4.35 -7.55,5.32 1,1.86 6.7,1.25 9.08,1.3l-0.48 -3.43 1.31 -0.56c0.24,-0.09 2.54,-0.81 2.55,-0.81 1.79,-0.78 1.28,-0.55 2.78,-1.69 -5.32,0.36 -7.15,-1.66 -13.11,-2.31 0,1.72 -0.38,1.13 1.31,1.66z"/>
   <path class="fil69" d="M92.42 223.82l-1.52 1.65 12.84 0.14c1.72,-3.9 1.56,-6.43 0.64,-10.62l-4.53 0.02 3.04 2.28 -0.47 6.56 -10 -0.03z"/>
   <path class="fil48" d="M28.43 227.43l2.37 -1.12c2.94,5.02 0.32,1.02 2.61,3.31 4.17,-2.84 0.68,0.14 1.46,-3.62 -1.39,-1.52 -6.39,-5.49 -7.24,-1.66 -4.89,8.77 -2.28,5.57 -0.49,7.56l1.29 -4.47z"/>
   <path class="fil53" d="M188.96 207.94l8.18 -2.74 -4.65 -0.63c4.49,-1.52 4.28,-1.05 8.33,-0.98 -1.38,-1.55 1.93,-1.11 -2.71,-1.55 -7.47,0.01 -6.19,1.16 -12.64,-1.93 1.79,4.36 0.57,3.36 4.37,4.46l-0.88 3.37z"/>
   <path class="fil70" d="M103.74 225.61c5.96,1.18 11.78,1 17.81,0.56l-1.31 -2.67c-1.88,2.9 0.33,1.03 -2.83,1.76 -0.47,0.1 -2.17,-0.17 -2.83,-0.13l-7.06 0.23 -0.99 -8.86 0.08 -0.88 -2.23 -0.63c0.92,4.19 1.08,6.72 -0.64,10.62z"/>
   <path class="fil71" d="M151.98 188.56l0.27 -2.32c3.18,2.18 3.58,2.88 6.79,3.33 -1.95,-3.61 -8.36,-8.46 -12.35,-8.43 0.43,3.3 2.6,5.56 5.29,7.42z"/>
   <path class="fil72" d="M94.72 218.99l-1.06 2.41c1.61,3.6 5.3,2.16 8.12,1.35 0.64,-7.01 -2.9,-5.61 -7.06,-3.76z"/>
   <path class="fil66" d="M170.25 245.46l-3.6 1.26c1.13,1.15 -1.48,1.21 5.33,2.06 -2.42,3.91 -2.64,0.25 -4.49,4.49 4.24,0.05 6.68,-3.14 8.52,-6.54 -2.55,-0.92 -3.05,-0.61 -2.25,-4.2 -2.51,3.08 -0.29,1.72 -3.51,2.93z"/>
   <path class="fil73" d="M89.26 47.84l4.71 0.57c3.14,5.56 1.91,5.24 4.08,7.97 1.84,-2.83 1.28,-1.61 1.23,-5.63 0.27,-0.12 0.66,-0.6 0.79,-0.36l2.92 -1.18c-4.07,-1.88 -2.8,-0.4 -5.8,1.78 -1.65,-3.49 -1.39,-2.84 0.63,-5.45 -2.74,0.65 -6.99,0.34 -8.56,2.3z"/>
   <path class="fil41" d="M66.42 90.51l0.47 2.38c3.13,-2.32 0.15,-1 3.8,-0.9l1.7 4.39c4.74,-1.9 1.56,-2.46 5.18,-1.23l0.37 -2.96 0.12 -2.95c-1.29,2.48 -0.97,2.05 -2.49,4.22l-3.82 -2.47c-2.15,-4.64 -2.39,-0.54 -3.99,-5.61 0.03,1.07 0.18,2.46 -0.08,3.48 -0.74,2.91 0.46,0.26 -1.26,1.65z"/>
   <path class="fil47" d="M188.84 215.01l-0.38 2.11 5.27 1.84 2.05 -2.33c0.65,-4.35 1.31,-5.18 -2.56,-6.59 -1.36,2.45 -0.78,1.42 -1.04,4.83l-3.34 0.14z"/>
   <path class="fil74" d="M176.38 225.71l-0.32 0.88c0.32,-1.86 -0.52,-0.86 1.84,-1.25l-0.3 4.69c3.74,1.7 3.22,2.25 7.07,0.05 0.63,-3.23 1.03,-1.71 -0.78,-2.49l-4.36 1.22 -0.23 -4.2 1.42 -2.57 -3.51 -0.32 -1.31 0.56 0.48 3.43z"/>
   <path class="fil75" d="M113.53 218.95l0.93 2.23 1.36 2.01 -1.24 1.94c0.66,-0.04 2.36,0.23 2.83,0.13 3.16,-0.73 0.95,1.14 2.83,-1.76l-0.29 -1.95c-4.57,-2.5 -3.46,-5.2 -8.43,-6.58l2.01 3.98z"/>
   <path class="fil76" d="M103.4 112.72l1.46 0.14 0.99 0.2 5.45 -0.94 -0.48 -5.97c-4.76,-0.64 -2.94,-1.63 -4.64,2.17 -1.95,4.36 0.67,1.19 -2.78,4.4z"/>
   <path class="fil5" d="M97.82 303.92l1.95 1.99c3.27,0.01 4.64,0.77 6.78,-0.93l1.35 -2.1c-7.34,-1.34 -1.54,0.93 -6.55,0.57l-1.03 -4.82 -1.72 0c0.01,3.4 0.4,2.49 -0.78,5.29z"/>
   <path class="fil59" d="M126.27 272.8l3.43 10.62c2.25,2.87 0.49,0.85 1.87,0.63l-0.35 -8.05c-2.13,-2.12 -2.32,-1.88 -2.11,-5.1 -1.45,1.5 -1.03,1.26 -2.84,1.9z"/>
   <path class="fil77" d="M94.72 218.99c4.16,-1.85 7.7,-3.25 7.06,3.76 -2.82,0.81 -6.51,2.25 -8.12,-1.35 -1.94,1.15 -1.29,-0.76 -1.24,2.42l10 0.03 0.47 -6.56 -3.04 -2.28 -4.68 -0.32 -0.45 4.3z"/>
   <path class="fil62" d="M125.41 116c0.41,4.27 -0.27,2.19 1.28,3.66 6.31,-0.67 4.03,0.95 5.51,-2.43l-2.64 -0.18c0.71,-4.97 0.04,-1.42 2.04,-4.86 -3.62,0.22 -4.61,0.65 -6.19,3.81z"/>
   <path class="fil54" d="M102.31 124.68l-1.05 1.42 3.51 1.03 4.05 -3.35 -0.84 -5.58c-5.03,2.66 0.42,1.75 -5.67,6.48z"/>
   <path class="fil29" d="M77.23 59.5l-0.39 1.2c4.43,-2.72 0.41,-3.9 5.9,-6.22 4.53,-1.92 5.08,-1.25 6.52,-6.64 -2.7,1.64 -4.49,3.19 -7.24,4.89 -3.15,1.95 -3.52,3.05 -4.79,6.77z"/>
   <path class="fil78" d="M93.16 287.1c3.1,-1.37 0.79,-1.75 4.74,-3.13 6.64,-2.31 3.18,-2.14 3.38,-4.47 -1.22,0.2 -10.65,2.9 -8.12,7.6z"/>
   <path class="fil79" d="M100.11 178.08c2.42,1.9 -1.18,0.44 1.35,0.49 0.11,0.01 0.42,-0.04 0.55,-0.04l1.27 -0.16c1.64,-0.03 3.89,0.28 5.91,0.49 -2.32,-0.26 -0.19,0.35 -1.18,-1.74 -1.56,-2.12 -2.2,-2.62 -5.3,-3.14 -2.63,2.28 -2.01,1.21 -2.6,4.1z"/>
   <path class="fil80" d="M80.38 285.28l2.48 -9.87c-2.17,0.91 -3.05,1.57 -4.01,4.11 -2.83,7.46 0.24,4.99 1.53,5.76z"/>
   <path class="fil7" d="M87.35 189.57c0.57,1.7 1.73,-2.25 0.31,3.39 4.14,0.56 2.36,-0.28 5.36,2.37l-0.96 0.58 2.76 -0.35 -3.2 -6.14 -0.01 -1.57 -2.33 1.14 -1.93 0.58z"/>
   <path class="fil55" d="M88.11 61.12l5.67 -1.88 -4.68 -3.15c2.76,-2.72 2.93,-1.52 3.53,-4.5 -3.59,-0.59 -2.28,-1.05 -3.41,2.25 -0.91,2.65 -1.27,4.63 -1.11,7.28z"/>
   <path class="fil72" d="M114.46 221.18l-0.93 -2.23 -4.57 -1.44c-0.91,3.94 -0.82,1.68 0.56,5.29 3.4,0.74 4.09,1.57 4.94,-1.62z"/>
   <path class="fil77" d="M36.75 221.49l1.06 2.51c4.04,0 7.98,1.35 9.17,-1.69 -2.58,1.48 0.09,1.28 -3.63,1.32 -4.78,0.06 -2.46,-0.63 -3.9,-1.39 3.69,-2.76 0.23,-2.81 5.88,-1 -2.58,-1.19 -0.5,0.18 -1.4,-2.32l-6.11 0.42 -1.07 2.15z"/>
   <path class="fil18" d="M86.72 111.82c-1.47,-3.41 -2.72,-4.16 -6.51,-4.79 0.41,2.19 0.7,5.02 3.32,5.46 5.51,0.93 0.72,0.4 3.19,-0.67z"/>
   <path class="fil5" d="M131.22 276l0.68 0.99c1.99,0.48 1.41,0.95 2.12,-0.57 -0.22,-0.33 -0.54,-1.15 -0.66,-1l-1.71 -4.07 2.64 -0.22c-0.52,-2.21 -3.72,-0.97 -5.18,-0.23 -0.21,3.22 -0.02,2.98 2.11,5.1z"/>
   <path class="fil62" d="M139.5 104.11c1.86,-2.81 1.59,-3.95 0.83,-7.38 -2.7,0.01 -4.39,1.39 -7.15,2.79l4.63 0.19 1.69 4.4z"/>
   <path class="fil65" d="M87.29 222.12l0.05 -0.72c-0.85,-1.92 -1,-3.97 -4.84,-2.49 -2.67,1.03 -0.16,0.57 -2.97,3.45l7.76 -0.24z"/>
   <path class="fil67" d="M166.09 223.5c0,1.77 -0.41,1.48 1.21,0.91 5.16,-0.97 7.07,0.67 7.55,-5.32l-4.11 -0.52c1.71,3.21 1.02,-0.02 1.51,3.26l-6.16 1.67z"/>
   <path class="fil81" d="M62.34 257.8l-0.15 -0.08 -1.4 2.76c6.12,2.79 4.76,4.54 5.87,-1.79 -3.26,-1.4 0.57,-0.71 -4.32,-0.89z"/>
   <path class="fil42" d="M132.53 163.83l3.47 3.57 2.64 -0.54c-1.47,-2.67 -2.26,-4.73 -4.49,-5.24 -2.57,1.13 -1.43,-0.55 -1.62,2.21z"/>
   <path class="fil82" d="M126.53 180.24l3.58 0.56 1.87 -2.46c-2.31,-1.95 -2.49,-1.53 -5.86,-2.24l0.41 4.14z"/>
   <path class="fil83" d="M119.43 289.38l1.21 2.81 -2.02 1.27 3.05 1.36 -0.65 2.19c1.48,-1.88 1.08,1.08 1.33,-3.94l1.96 -0.09 -0.55 -1.24c-1.08,-3.47 0.14,-1.18 -2.08,-3.74 -0.9,2.61 2.18,3.77 -2.25,1.38z"/>
   <path class="fil81" d="M63.93 254l0.97 0.28 1.63 -1.28 1.47 -1.05 1.77 -1.67c-3.75,-2.34 -0.78,-1.69 -5.22,-0.85l-0.62 4.57z"/>
   <path class="fil81" d="M33.33 239.47l0.35 2.58 2.9 -0.36 0.61 -2.94c-0.6,-2.25 1.71,-0.57 -3.09,-2.77l-0.77 3.49z"/>
   <path class="fil59" d="M99.78 294.85c0.25,-3.68 -1.18,-5.82 -4.66,-6.69 -0.06,3.84 -0.61,1.24 1.44,4.06 2.71,3.74 -0.08,1.85 3.22,2.63z"/>
   <path class="fil84" d="M123.96 116.27c-5.9,1.83 -5.46,-0.25 -5.93,5.03 2.78,-0.85 -0.92,1.71 3.13,-1.2 3.9,-2.81 1.21,0.36 2.8,-3.83z"/>
   <path class="fil85" d="M43.04 242.2l1.22 -1.19 2.52 1.47 0.3 -2.41c0.8,-2.17 -0.09,-1.11 2.07,-1.88 -2.01,-1.95 -1.8,-1.97 -4.8,-1.69l1.15 2.49c-2.77,2.45 -1.63,0.13 -2.46,3.21z"/>
   <path class="fil86" d="M176.12 203.08c-0.1,-1.06 1.46,-1.2 -1.55,-0.53l-2.4 0.43c1.36,3.86 -0.2,2.61 3.9,3.14 1.34,-2.2 0.52,-0.37 0.05,-3.04z"/>
   <path class="fil81" d="M46.78 242.48c1.02,0.97 -1.64,1.39 1.84,0.68 2.2,-3.42 1.62,-1.3 0.53,-4.97 -2.16,0.77 -1.27,-0.29 -2.07,1.88l-0.3 2.41z"/>
   <polygon class="fil87" points="83.88,124.22 83.28,125.24 88.07,125.84 89.04,122.33 "/>
   <path class="fil45" d="M136.27 121c3.35,-1.72 3.61,-2.48 5.37,-6 -3.7,1.86 -4.22,1.97 -5.37,6z"/>
   <path class="fil88" d="M147.72 266.56c0.72,-7.21 -0.48,-0.84 2.38,-5.33l-3.55 -0.77 -0.06 4.55 1.23 1.55z"/>
   <path class="fil89" d="M176.01 246.73l0.87 -3.43 -3.12 -0.77c-0.8,3.59 -0.3,3.28 2.25,4.2z"/>
   <path class="fil80" d="M105.35 298.5l-3.95 -2.1c0.25,4.06 -1.05,1.42 1.23,3.75 4.52,-0.1 1.9,0.94 2.72,-1.65z"/>
   <polygon class="fil90" points="89.2,298 91.32,298.23 90.99,294.6 87.28,295.96 "/>
   <path class="fil91" d="M143.66 81.93c2.64,-1.38 2.46,-0.97 0.95,-3.85 -3.58,1.42 -3,0.97 -0.95,3.85z"/>
   <path class="fil15" d="M84 284.11c0.03,0.02 0.71,4.16 3.61,-1.13 -1.03,-0.32 1.3,-1.8 -2.14,-0.39 -2.43,1.01 0.38,-0.64 -1.47,1.52z"/>
   <polygon class="fil74" points="164.81,235 166.27,235.33 168.2,231.9 164.39,232.39 "/>
   <path class="fil92" d="M138.74 55.59c-0.88,-3.04 -0.97,-2.46 -3.5,-3.57l0.43 3.03 3.07 0.54z"/>
   <path class="fil93" d="M115.16 289.33l-2.67 0.4c0.45,0.81 0.21,0.84 0.83,1.52 2.31,2.54 1.16,1.16 2.53,1.97l-0.69 -3.89z"/>
   <polygon class="fil88" points="183.89,227.59 180.53,228.44 180.75,223.62 179.3,224.61 179.53,228.81 "/>
   <path class="fil13" d="M72.18 65.37c1.91,-2.98 0.8,-4.22 4.66,-4.67l-4.43 0.15 -0.23 4.52z"/>
   <path class="fil94" d="M142.68 168.55l1.01 -0.37c-0.8,-2.74 -0.18,-2.61 -3.23,-3.21l2.22 3.58z"/>
   <path class="fil95" d="M182.58 212.93c0.78,1.1 -1.41,1.27 2.19,0.49l-0.17 -2.12 -1.32 -0.01 -0.66 -0.38 -0.04 2.02z"/>
   <polygon class="fil13" points="183.28,211.29 184.6,211.3 185.35,209.08 183.54,208.24 "/>
   <path class="fil96" d="M64.99 217.48l1.32 -0.25 0.6 -0.24 0.43 -1.91c-2.93,1.14 -1.46,-0.82 -2.35,2.4z"/>
   <path class="fil97" d="M100.59 154.12l1.67 -0.22c0.06,-0.23 -0.09,-0.68 0.65,-1.9l-2 0.14 -0.32 1.98z"/>
   <polygon class="fil98" points="147.43,169.3 149.78,166.94 147.7,167.23 "/>
   <path class="fil99" d="M74 220c2.74,-1.67 1.86,-0.56 3.17,-3.7l-3.17 3.7z"/>
  </g>
 </g>
</svg>
